<svg width="185" height="106" viewBox="0 0 185 106" fill="none" xmlns="http://www.w3.org/2000/svg">
<path d="M155.083 47.5452C152.632 47.5247 150.189 47.2916 147.784 46.8488C145.472 46.3913 143.213 45.7206 141.04 44.8464L139.469 44.4982H138.36C137.437 44.4982 136.975 45.1076 136.975 46.3264V49.1993C136.844 49.7438 136.844 50.3089 136.975 50.8534C137.439 51.5694 138.112 52.1438 138.915 52.5075C141.137 53.5552 143.499 54.3165 145.936 54.771C148.963 55.4528 152.063 55.8034 155.175 55.8157C158.306 55.9042 161.429 55.4921 164.414 54.5969C166.879 53.9873 169.179 52.8892 171.158 51.3758C173.029 50.0132 174.572 48.2922 175.685 46.3264C176.744 44.2032 177.281 41.882 177.256 39.5359C177.289 36.6252 176.316 33.7833 174.484 31.4396C172.02 28.8021 168.819 26.8712 165.245 25.8679L156.468 23.2562C154.016 22.6582 151.721 21.5914 149.724 20.1221C149.139 19.593 148.673 18.9577 148.356 18.2545C148.038 17.5512 147.875 16.7947 147.876 16.0304C147.81 14.9974 148.042 13.9668 148.546 13.0474C149.05 12.1279 149.808 11.3539 150.74 10.807C153.297 9.6384 156.126 9.09927 158.963 9.23994C163.005 9.14746 167.017 9.92144 170.696 11.5034C171.448 11.8647 172.261 12.1004 173.098 12.1999C174.022 12.1999 174.484 11.5034 174.484 10.2846V7.15056C174.512 6.47372 174.318 5.80519 173.93 5.23529C173.436 4.64271 172.804 4.16594 172.082 3.84237C171.258 3.41495 170.392 3.06503 169.495 2.79769C168.345 2.41528 167.173 2.09554 165.984 1.84005L161.919 0.969479C160.412 0.866882 158.899 0.866882 157.392 0.969479C154.8 0.927364 152.215 1.25013 149.724 1.92711C147.392 2.56864 145.201 3.60078 143.257 4.97412C141.454 6.21423 139.969 7.82098 138.915 9.67523C137.782 11.6521 137.209 13.871 137.252 16.1175C137.197 19.2604 138.271 22.3286 140.301 24.8232C142.837 27.7027 146.259 29.7708 150.094 30.7431L159.332 33.3549C161.618 33.8582 163.742 34.8735 165.522 36.3148C166.629 37.4182 167.226 38.8892 167.185 40.4065C167.205 41.5078 166.917 42.5946 166.349 43.5575C165.782 44.5204 164.955 45.3253 163.952 45.8911C161.21 47.191 158.144 47.7628 155.083 47.5452ZM101.405 5.32235C101.263 4.46901 100.843 3.67824 100.204 3.05886C99.5134 2.57865 98.6559 2.3611 97.8024 2.44946H92.721C91.8718 2.40503 91.0298 2.61864 90.319 3.05886C89.6455 3.65459 89.2196 4.45719 89.1179 5.32235L79.8792 43.6276L69.347 5.32235C69.179 4.45853 68.7264 3.66654 68.0536 3.05886C68.0536 3.05886 66.8525 2.44946 65.6515 2.44946H59.6463C58.63 2.44946 58.1681 2.9718 58.1681 3.92943C58.2577 4.73022 58.4437 5.5188 58.7224 6.27999L73.1349 51.0275C73.3222 51.8236 73.7016 52.5683 74.2435 53.204C74.9698 53.6029 75.8073 53.785 76.6456 53.7263H81.9117C82.7792 53.7815 83.6452 53.6002 84.4062 53.204C84.9885 52.5259 85.3709 51.7151 85.5148 50.8534L94.7536 13.5928L103.992 50.9405C104.069 51.794 104.461 52.5951 105.101 53.204C105.828 53.6825 106.713 53.8988 107.595 53.8134H112.862C113.681 53.8513 114.492 53.6375 115.171 53.204C115.866 52.6124 116.323 51.8128 116.465 50.9405L131.339 6.19293C131.393 5.73002 131.393 5.26291 131.339 4.80001C131.375 4.48169 131.375 4.16069 131.339 3.84237C131.37 3.64124 131.351 3.43608 131.283 3.24319C131.215 3.05031 131.1 2.87503 130.948 2.73132C130.795 2.58761 130.609 2.47943 130.404 2.41538C130.2 2.35133 129.982 2.33319 129.768 2.3624H124.04C123.192 2.32975 122.354 2.54241 121.638 2.9718C121.07 3.6359 120.66 4.40804 120.437 5.23529L111.199 44.4982L101.405 5.32235ZM35.1636 23.8656C32.9883 23.5967 30.7979 23.4513 28.6041 23.4303C23.1668 23.1611 17.8122 24.7708 13.5449 27.9573C11.7277 29.4238 10.2854 31.2581 9.32554 33.3233C8.36572 35.3884 7.91317 37.6312 8.00166 39.8842C7.8942 41.9359 8.24121 43.9863 9.02059 45.9048C9.79998 47.8233 10.9947 49.5679 12.5287 51.0275C14.1774 52.4613 16.1139 53.5696 18.2242 54.2873C20.3344 55.005 22.5758 55.3174 24.8162 55.2063C28.3426 55.3018 31.8447 54.6287 35.0498 53.2395C38.2548 51.8502 41.076 49.7824 43.2937 47.197C43.8337 48.364 44.4509 49.498 45.1415 50.5922C45.7991 51.5487 46.5408 52.4515 47.3588 53.291C47.5822 53.5042 47.8483 53.6735 48.1417 53.789C48.4351 53.9046 48.7499 53.9641 49.0679 53.9641C49.3859 53.9641 49.7007 53.9046 49.9941 53.789C50.2875 53.6735 50.5537 53.5042 50.7771 53.291L54.6574 50.8534C54.9813 50.6644 55.2569 50.4104 55.4645 50.1094C55.6721 49.8084 55.8066 49.4679 55.8584 49.1123C56.0078 48.6586 56.0078 48.173 55.8584 47.7193C55.1098 46.4004 54.4614 45.0331 53.9183 43.6276C53.4233 41.9274 53.2052 40.1662 53.2716 38.4042V20.0351C53.4923 17.4552 53.1558 14.8599 52.2825 12.406C51.4091 9.9521 50.017 7.69045 48.1902 5.75764C45.8423 3.89734 43.1133 2.51224 40.1729 1.6885C37.2325 0.864756 34.1436 0.620007 31.0985 0.969479C27.98 0.968386 24.8744 1.34882 21.8598 2.10123C19.1755 2.68927 16.5716 3.56557 14.0992 4.71295C13.4471 4.98442 12.876 5.40301 12.4363 5.93176C12.2105 6.58225 12.2105 7.28359 12.4363 7.93408V10.807C12.4363 12.0258 12.4363 12.5481 13.7297 12.5481C14.0646 12.6164 14.4111 12.6164 14.746 12.5481L16.8709 11.8517C18.7475 10.9837 20.6936 10.2559 22.6913 9.67523C24.8668 9.16141 27.1004 8.89831 29.3432 8.89171C32.9146 8.53917 36.4918 9.50671 39.321 11.5905C41.5211 14.1945 42.5495 17.5078 42.1851 20.8186V25.0844L35.1636 23.8656ZM42.3698 31.7008V34.0513C42.377 35.7532 42.1598 37.4493 41.7231 39.1007C41.3332 40.4871 40.6056 41.7689 39.5982 42.8441C38.0578 44.5504 36.0418 45.8169 33.7778 46.5005C31.7583 47.1699 29.6361 47.5229 27.4954 47.5452C26.3235 47.6274 25.1461 47.4846 24.0345 47.1254C22.9229 46.7663 21.9002 46.1983 21.0283 45.4558C20.2191 44.6299 19.6034 43.6527 19.2214 42.5877C18.8394 41.5228 18.6996 40.394 18.811 39.2748C18.7347 38.0241 18.9707 36.774 19.5002 35.6249C20.0297 34.4758 20.8379 33.4597 21.8598 32.6584C24.5523 30.8798 27.8219 30.0479 31.0985 30.3078H36.8266C38.6999 30.6764 40.5505 31.1414 42.3698 31.7008ZM164.414 79.3212C142.328 88.0776 118.622 92.6339 94.6612 92.7281C62.5892 92.7337 31.068 84.873 3.19751 69.919C0.980208 68.6131 -0.775156 70.7896 1.16498 72.4437C26.251 93.8132 58.9043 105.581 92.721 105.438C119.389 105.5 145.461 98.0086 167.555 83.9352C170.696 81.2365 167.832 77.6671 164.414 79.3212Z" fill="#454545"/>
<path d="M151.664 71.1378C149.909 72.3566 150.186 74.0107 152.126 73.7495C158.686 72.966 173.191 71.399 175.777 74.533C178.364 77.6671 172.913 90.4646 170.419 96.2104C169.68 97.9515 171.343 98.648 173.006 97.3421C177.213 93.6927 180.437 89.1524 182.413 84.0963C184.389 79.0402 185.06 73.6135 184.369 68.2649C179.061 66.2949 173.335 65.5285 167.653 66.0276C161.972 66.5266 156.495 68.2771 151.664 71.1378Z" fill="#454545"/>
</svg>
