<svg width="311" height="124" viewBox="0 0 311 124" fill="none" xmlns="http://www.w3.org/2000/svg">
<path d="M106.834 25.4346L65.6933 2.40716C63.2931 1.05768 60.5505 0.345215 57.7558 0.345215C54.9612 0.345215 52.2186 1.05768 49.8184 2.40716L8.6689 25.4346C6.2357 26.8184 4.22534 28.774 2.8346 31.1102C1.44386 33.4463 0.720417 36.0829 0.735082 38.7617V84.808C0.721886 87.4856 1.44603 90.1205 2.8367 92.4551C4.22736 94.7897 6.23694 96.7441 8.6689 98.1272L49.8099 121.147C52.2104 122.495 54.9529 123.207 57.7474 123.207C60.5418 123.207 63.2844 122.495 65.6848 121.147L106.826 98.1277C109.261 96.7449 111.273 94.7895 112.665 92.4532C114.058 90.1169 114.782 87.4797 114.768 84.8001V38.7617C114.783 36.0829 114.059 33.4463 112.669 31.1102C111.278 28.774 109.268 26.8184 106.834 25.4346Z" fill="white"/>
<path d="M106.834 25.4346L65.6933 2.40716C63.2931 1.05768 60.5505 0.345215 57.7558 0.345215C54.9612 0.345215 52.2186 1.05768 49.8184 2.40716L8.6689 25.4346C6.2357 26.8184 4.22534 28.774 2.8346 31.1102C1.44386 33.4463 0.720417 36.0829 0.735082 38.7617V84.808C0.721886 87.4856 1.44603 90.1205 2.8367 92.4551C4.22736 94.7897 6.23694 96.7441 8.6689 98.1272L49.8099 121.147C52.2104 122.495 54.9529 123.207 57.7474 123.207C60.5418 123.207 63.2844 122.495 65.6848 121.147L106.826 98.1277C109.261 96.7449 111.273 94.7895 112.665 92.4532C114.058 90.1169 114.782 87.4797 114.768 84.8001V38.7617C114.783 36.0829 114.059 33.4463 112.669 31.1102C111.278 28.774 109.268 26.8184 106.834 25.4346ZM51.2516 118.793L10.1106 95.7745C8.11175 94.6327 6.46035 93.0226 5.317 91.1009C4.17364 89.1793 3.57724 87.0114 3.58579 84.808V38.7617C3.57641 36.5583 4.17246 34.3901 5.3159 32.4682C6.45933 30.5464 8.11118 28.9365 10.1106 27.7952L51.2516 4.76837C53.217 3.66295 55.463 3.07933 57.7516 3.07933C60.0402 3.07933 62.2862 3.66295 64.2516 4.76837L105.36 27.7952C107.034 28.7513 108.467 30.0403 109.558 31.5722C110.649 33.104 111.373 34.8419 111.678 36.6646C110.311 33.923 107.237 33.1695 103.654 35.1115L64.7616 57.8202C59.9096 60.4837 56.3341 63.4893 56.3257 69.0034V114.219C56.3257 117.52 57.7347 119.656 59.9096 120.285C59.1975 120.407 58.4752 120.473 57.751 120.479C55.4634 120.477 53.2184 119.895 51.2516 118.793Z" fill="#454545"/>
<path d="M96.051 89.2584L85.8025 95.0359C85.6681 95.0869 85.5523 95.1736 85.469 95.2853C85.3857 95.397 85.3384 95.5291 85.333 95.6656V98.2047C85.333 98.5156 85.5557 98.6399 85.8273 98.4922L96.2319 92.5276C96.4866 92.3479 96.6088 92.0451 96.5453 91.7514V89.5219C96.5368 89.235 96.2979 89.1107 96.051 89.2584Z" fill="white"/>
<path d="M74.2363 67.9859C74.5655 67.8308 74.8377 67.9859 74.8456 68.429L74.8788 71.7998C76.1112 71.2719 77.4862 71.1146 78.8167 71.3492C79.072 71.4114 79.1791 71.737 79.0805 72.1254L78.2976 75.0843C78.2383 75.3079 78.1161 75.5121 77.9431 75.6746C77.8826 75.7317 77.813 75.7784 77.7374 75.8144C77.6443 75.8619 77.5368 75.8784 77.4325 75.8611C76.1352 75.5904 74.7772 75.796 73.635 76.436C72.8165 76.7835 72.1186 77.3417 71.6216 78.0465C71.1246 78.7512 70.8486 79.5739 70.8254 80.4199C70.8254 81.9735 71.6494 82.4006 74.5243 82.4468C78.3224 82.5096 79.9698 84.07 80.0116 87.6814C79.9668 89.5438 79.4927 91.3748 78.622 93.0471C77.7513 94.7194 76.505 96.1931 74.9696 97.3658L75.0355 100.675C75.0326 100.877 74.9761 101.075 74.8711 101.252C74.766 101.428 74.6158 101.577 74.4342 101.684L72.3578 102.81C72.0281 102.966 71.7565 102.81 71.748 102.376V99.1213C69.9694 99.8205 68.1647 99.9836 67.011 99.549C66.7974 99.4709 66.6982 99.168 66.7889 98.819L67.5391 95.8287C67.5955 95.5919 67.7242 95.3757 67.9094 95.207C67.968 95.154 68.0346 95.1101 68.1072 95.0753C68.1603 95.0528 68.2178 95.0411 68.276 95.0411C68.3342 95.0411 68.3917 95.0528 68.4448 95.0753C69.9133 95.4505 71.4797 95.2633 72.8025 94.5546C73.7393 94.1288 74.5346 93.4695 75.1024 92.6482C75.6703 91.8268 75.989 90.8747 76.0241 89.8949C76.0241 88.2175 75.044 87.5183 72.7287 87.5029C69.7383 87.5029 66.962 86.9594 66.9045 82.8432C66.9385 81.0672 67.389 79.3203 68.2236 77.7278C69.0583 76.1353 70.2565 74.7367 71.7323 73.6322L71.5835 70.2461C71.5828 70.0412 71.6377 69.8394 71.743 69.6601C71.8482 69.4807 72.0003 69.3297 72.1848 69.2212L74.2363 67.9859Z" fill="white"/>
<path d="M237.071 35.3368C241.904 33.961 247.069 34.0287 251.859 35.5307C254.244 36.2786 256.474 37.4111 258.449 38.8781C260.372 40.3211 261.959 42.1213 263.112 44.1668C264.31 46.325 264.948 48.7204 264.974 51.1563C264.979 51.4067 264.929 51.6553 264.827 51.8866C264.725 52.1178 264.573 52.3267 264.381 52.5C263.982 52.8604 263.45 53.0608 262.898 53.059H255.673C255.178 53.0686 254.695 52.9087 254.315 52.609C253.935 52.3092 253.683 51.8898 253.605 51.4284C253.452 50.2603 253.11 49.1211 252.592 48.0503C252.141 47.1314 251.506 46.3033 250.722 45.6115C249.924 44.9295 248.992 44.4017 247.979 44.0579C245.683 43.341 243.211 43.2923 240.886 43.9182C239.897 44.1712 238.962 44.5867 238.126 45.1455C237.376 45.6496 236.753 46.3048 236.305 47.0636C235.85 47.8623 235.626 48.7595 235.655 49.6655C235.631 50.5759 235.92 51.4692 236.478 52.2126C237.134 53.0243 237.951 53.7075 238.884 54.2242C239.992 54.8573 241.168 55.3781 242.393 55.7778C243.677 56.1927 244.971 56.581 246.273 56.9424C247.719 57.3511 249.151 57.8044 250.566 58.3015C252.029 58.8162 253.456 59.4155 254.841 60.0958C256.209 60.7692 257.515 61.5485 258.746 62.4257C259.981 63.3063 261.088 64.3349 262.041 65.4855C263.014 66.6354 263.79 67.9221 264.34 69.2988C264.901 70.7949 265.179 72.3719 265.163 73.9585C265.213 76.3493 264.539 78.704 263.219 80.7461C261.97 82.6256 260.31 84.2328 258.351 85.4605C256.33 86.715 254.103 87.6466 251.76 88.2175C249.417 88.8123 247.002 89.1153 244.576 89.1187C241.91 89.1191 239.258 88.7447 236.709 88.0076C234.212 87.2995 231.859 86.2022 229.747 84.7613C227.688 83.3507 225.956 81.5591 224.656 79.4959C223.303 77.3107 222.568 74.8341 222.523 72.3039C222.516 72.0528 222.564 71.8031 222.665 71.5706C222.766 71.338 222.916 71.1277 223.108 70.9528C223.507 70.5877 224.042 70.3843 224.599 70.3859H231.79C232.285 70.376 232.766 70.5348 233.146 70.8331C233.526 71.1313 233.779 71.549 233.858 72.0091C234.018 73.2253 234.418 74.4028 235.036 75.4807C235.6 76.4372 236.359 77.2792 237.269 77.9583C238.214 78.658 239.29 79.1848 240.441 79.5113C242.941 80.1855 245.585 80.2337 248.111 79.651C249.138 79.4253 250.116 79.0338 251.002 78.4938C251.79 78.0079 252.456 77.3668 252.954 76.6146C253.441 75.838 253.682 74.9457 253.646 74.044C253.691 73.0463 253.403 72.0605 252.823 71.2248C252.181 70.3579 251.353 69.6276 250.393 69.0809C249.264 68.4244 248.062 67.8878 246.809 67.4811C245.381 67.01 244.008 66.5857 242.69 66.2076C240.655 65.6486 238.612 64.9186 236.536 64.095C234.423 63.2687 232.423 62.205 230.58 60.9268C228.754 59.6615 227.197 58.0832 225.991 56.2746C224.721 54.3096 224.072 52.0436 224.121 49.743C224.088 47.4132 224.726 45.1184 225.966 43.1031C227.155 41.2049 228.748 39.5599 230.646 38.2724C232.596 36.9583 234.768 35.9657 237.071 35.3368H237.071ZM200.197 35.0876C200.631 35.0805 201.056 35.202 201.412 35.4348C201.768 35.6676 202.038 36 202.183 36.3851L219.705 86.0194C219.804 86.2999 219.828 86.5992 219.775 86.8905C219.722 87.1818 219.593 87.4563 219.4 87.6894C219.205 87.9274 218.956 88.1209 218.671 88.2554C218.386 88.3899 218.072 88.462 217.753 88.4662H210.759C210.321 88.4734 209.892 88.3495 209.534 88.1122C209.176 87.875 208.907 87.5366 208.765 87.1459L204.844 75.6125H189.438L185.443 87.1533C185.3 87.5406 185.031 87.8758 184.674 88.1113C184.318 88.3469 183.892 88.471 183.457 88.4662H176.422C176.103 88.462 175.789 88.3899 175.504 88.2554C175.219 88.1209 174.969 87.9274 174.775 87.6894C174.582 87.4559 174.455 87.1811 174.403 86.8896C174.351 86.5982 174.377 86.2992 174.478 86.0194L192.355 36.3771C192.502 35.9956 192.771 35.6665 193.126 35.4356C193.48 35.2047 193.901 35.0833 194.332 35.0882L200.197 35.0876ZM278.925 35.0882C279.444 35.103 279.937 35.3042 280.304 35.6507C280.671 35.9972 280.883 36.4627 280.898 36.952V56.4297H299.442V36.952C299.457 36.4446 299.685 35.9635 300.076 35.6141C300.466 35.2647 300.988 35.0756 301.526 35.0882H308.294C308.813 35.103 309.307 35.3042 309.673 35.6507C310.04 35.9972 310.253 36.4627 310.267 36.952V86.5943C310.252 87.1018 310.024 87.5829 309.634 87.9323C309.243 88.2817 308.721 88.4708 308.183 88.4582H301.415C300.896 88.4433 300.403 88.242 300.036 87.8955C299.67 87.549 299.457 87.0835 299.443 86.5943V65.5163H280.898V86.5943C280.883 87.1018 280.655 87.5829 280.264 87.9323C279.874 88.2817 279.352 88.4708 278.814 88.4582H272.112C271.593 88.4433 271.1 88.242 270.733 87.8955C270.366 87.549 270.154 87.0835 270.139 86.5943V36.952C270.155 36.4446 270.382 35.9635 270.773 35.6141C271.164 35.2647 271.685 35.0756 272.224 35.0882H278.925ZM149.599 35.0802C152.034 35.1019 154.459 35.391 156.823 35.9425C159.13 36.4673 161.323 37.3631 163.307 38.5906C165.242 39.7996 166.852 41.4163 168.011 43.313C169.237 45.417 169.838 47.7943 169.75 50.1936C169.739 52.9786 168.675 55.6687 166.751 57.7814C165.881 58.7341 164.878 59.5702 163.768 60.2663L164.296 60.5618C165.686 61.3686 166.927 62.3838 167.97 63.5675C169.014 64.7471 169.836 66.0866 170.4 67.5279C170.967 69.0492 171.246 70.6527 171.224 72.2651C171.294 74.6948 170.704 77.1009 169.511 79.2552C168.378 81.2438 166.794 82.9726 164.872 84.3187C162.901 85.6837 160.693 86.7164 158.348 87.3711C155.922 88.0649 153.403 88.4283 150.867 88.4502H133.011C132.492 88.4353 131.999 88.234 131.632 87.8875C131.266 87.541 131.053 87.0756 131.039 86.5864V36.944C131.054 36.4367 131.281 35.9557 131.672 35.6063C132.063 35.2569 132.584 35.0678 133.122 35.0802H149.599ZM151.361 65.2448H142.3V79.3796H151.048C152.233 79.3632 153.409 79.1746 154.533 78.8206C155.571 78.4985 156.543 78.0125 157.408 77.3834C158.191 76.807 158.829 76.0752 159.278 75.24C159.749 74.3398 159.983 73.3462 159.962 72.3427C160.008 71.3161 159.802 70.2929 159.361 69.353C158.955 68.529 158.362 67.7997 157.622 67.2171C156.823 66.5952 155.906 66.1212 154.921 65.8197C153.77 65.4657 152.571 65.272 151.361 65.2448ZM197.264 53.0516L192.685 66.3633H201.746L197.264 53.0516ZM149.78 44.2056H142.275V56.2671H150.003C151.119 56.2477 152.227 56.0858 153.297 55.7858C154.28 55.5203 155.207 55.1001 156.041 54.543C156.789 54.0415 157.415 53.3956 157.878 52.6483C158.324 51.8814 158.541 51.0142 158.504 50.14C158.538 49.2194 158.317 48.3064 157.861 47.4913C157.434 46.7808 156.832 46.1766 156.107 45.729C155.254 45.2104 154.312 44.8369 153.322 44.6254C152.161 44.3651 150.973 44.224 149.78 44.2056ZM177.691 96.97C177.946 97.2859 178.136 97.6441 178.251 98.0262C178.377 98.4323 178.441 98.8533 178.44 99.2764L178.432 100.216C178.432 100.64 178.369 101.06 178.243 101.467C178.129 101.848 177.942 102.206 177.691 102.523C177.445 102.828 177.13 103.078 176.768 103.253C176.364 103.441 175.917 103.535 175.467 103.525C175.043 103.537 174.622 103.452 174.24 103.278C173.859 103.103 173.528 102.844 173.275 102.523C173.027 102.205 172.843 101.847 172.731 101.467C172.608 101.06 172.547 100.639 172.55 100.216V99.2764C172.55 98.993 172.577 98.7095 172.632 98.43C172.683 98.1642 172.764 97.9036 172.871 97.6538C172.977 97.4143 173.113 97.1872 173.275 96.9779C173.431 96.7726 173.62 96.5918 173.836 96.4418C174.059 96.2897 174.306 96.1717 174.568 96.0922C174.859 96.0067 175.162 95.9649 175.467 95.9684C175.895 95.9565 176.32 96.0412 176.707 96.2154C177.094 96.3896 177.431 96.6483 177.691 96.97ZM274.646 95.9759C275.021 95.9737 275.393 96.0288 275.75 96.139C276.075 96.2404 276.379 96.3957 276.647 96.5975C276.9 96.7903 277.108 97.031 277.257 97.3042C277.408 97.5859 277.487 97.8973 277.487 98.2127H276.137C276.121 98.0391 276.076 97.8688 276.005 97.708C275.936 97.5574 275.835 97.4228 275.708 97.3116C275.575 97.1968 275.418 97.1096 275.247 97.0555C275.045 96.991 274.833 96.9596 274.621 96.9625C274.431 96.9611 274.243 96.9845 274.06 97.0321C273.899 97.0755 273.749 97.1462 273.616 97.242C273.493 97.3289 273.391 97.4403 273.319 97.5682C273.246 97.7027 273.21 97.8519 273.212 98.0028C273.212 98.1614 273.264 98.316 273.36 98.4454C273.463 98.5789 273.592 98.6924 273.739 98.7796C273.91 98.8817 274.092 98.965 274.283 99.0283C274.486 99.0956 274.7 99.1578 274.926 99.2148C275.261 99.3026 275.589 99.4144 275.906 99.5485C276.202 99.6728 276.48 99.8348 276.73 100.03C276.959 100.209 277.149 100.428 277.29 100.674C277.433 100.937 277.503 101.228 277.496 101.521C277.502 101.823 277.423 102.12 277.266 102.383C277.111 102.634 276.9 102.848 276.647 103.012C276.373 103.186 276.07 103.315 275.75 103.393C275.4 103.481 275.04 103.525 274.679 103.525C274.427 103.526 274.176 103.505 273.928 103.463C273.686 103.422 273.449 103.357 273.221 103.269C272.996 103.183 272.783 103.074 272.585 102.943C272.394 102.815 272.222 102.664 272.075 102.492C271.77 102.133 271.604 101.686 271.605 101.226H272.965C272.979 101.428 273.035 101.626 273.13 101.809C273.216 101.97 273.34 102.11 273.492 102.22C273.65 102.333 273.829 102.418 274.019 102.469C274.236 102.527 274.461 102.556 274.687 102.554C274.878 102.556 275.069 102.535 275.255 102.491C275.42 102.453 275.576 102.388 275.716 102.297C275.845 102.215 275.952 102.106 276.03 101.979C276.105 101.84 276.139 101.685 276.128 101.529C276.131 101.368 276.088 101.21 276.005 101.071C275.917 100.932 275.799 100.813 275.659 100.721C275.495 100.613 275.318 100.524 275.131 100.457C274.913 100.375 274.691 100.305 274.464 100.248C274.139 100.164 273.819 100.06 273.508 99.9369C273.214 99.818 272.938 99.6641 272.685 99.4789C272.444 99.3068 272.24 99.0934 272.083 98.8498C271.926 98.5955 271.846 98.3051 271.853 98.0108C271.848 97.7118 271.927 97.4169 272.083 97.1565C272.236 96.9055 272.444 96.6888 272.693 96.5194C272.963 96.3379 273.264 96.2013 273.582 96.1156C273.928 96.0212 274.286 95.9742 274.645 95.9759H274.646ZM233.265 95.9604C233.65 95.9551 234.034 96.0074 234.402 96.1156C234.705 96.2143 234.985 96.3671 235.226 96.5662C235.468 96.7663 235.662 97.0127 235.795 97.2888C235.939 97.588 236.028 97.9082 236.058 98.2355H234.732C234.703 98.0516 234.65 97.8718 234.575 97.7C234.508 97.5487 234.41 97.4115 234.287 97.2962C234.162 97.1822 234.014 97.0947 233.85 97.0395C233.654 96.9775 233.448 96.9487 233.241 96.9546C232.982 96.9469 232.727 97.0118 232.507 97.1411C232.298 97.2729 232.123 97.4483 231.997 97.6538C231.852 97.8945 231.752 98.1574 231.7 98.43C231.636 98.7214 231.602 99.0181 231.601 99.3158V100.232C231.605 100.527 231.64 100.821 231.708 101.11C231.763 101.384 231.869 101.647 232.022 101.886C232.157 102.095 232.343 102.271 232.565 102.399C232.815 102.535 233.1 102.602 233.389 102.593H233.785C233.915 102.579 234.045 102.556 234.172 102.523C234.289 102.49 234.402 102.446 234.509 102.391C234.604 102.342 234.688 102.276 234.756 102.197V100.729H233.274V99.7891H236.083L236.124 102.5C235.979 102.654 235.816 102.793 235.638 102.911C235.44 103.042 235.227 103.152 235.004 103.237C234.759 103.331 234.505 103.401 234.246 103.447C233.958 103.5 233.665 103.526 233.373 103.525C232.921 103.534 232.473 103.446 232.063 103.268C231.69 103.103 231.36 102.861 231.098 102.562C230.828 102.249 230.624 101.891 230.497 101.506C230.356 101.084 230.283 100.644 230.283 100.201V99.2924C230.28 98.85 230.349 98.4099 230.489 97.9874C230.613 97.6041 230.811 97.2459 231.074 96.9312C231.335 96.6212 231.669 96.3723 232.049 96.204C232.429 96.0356 232.846 95.9522 233.265 95.9604H233.265ZM182.362 96.038V100.962C182.364 101.173 182.397 101.382 182.461 101.583C182.512 101.76 182.599 101.926 182.716 102.073C182.828 102.208 182.972 102.317 183.136 102.391C183.319 102.471 183.519 102.511 183.721 102.507C183.928 102.511 184.133 102.471 184.322 102.391C184.492 102.319 184.642 102.209 184.759 102.073C184.88 101.927 184.97 101.761 185.022 101.583C185.085 101.382 185.119 101.173 185.122 100.962V96.038L186.456 96.0694V100.993C186.456 101.347 186.387 101.697 186.251 102.025C186.124 102.317 185.936 102.581 185.698 102.803C185.464 103.025 185.184 103.199 184.874 103.315C184.513 103.439 184.13 103.5 183.746 103.494C183.369 103.5 182.995 103.439 182.642 103.315C182.323 103.203 182.033 103.027 181.792 102.801C181.55 102.575 181.362 102.303 181.241 102.003C181.104 101.671 181.034 101.318 181.036 100.962V96.038H182.362ZM293.716 96.0848V97.0863H289.803V99.1601H293.19V100.123H289.812V102.453H293.758V103.44H288.452V96.0848H293.716ZM153.462 96.0848V97.0863H149.55V99.1601H152.927V100.123H149.55V102.453H153.495V103.44H148.198V96.0848H153.463H153.462ZM211.212 96.0848V97.0863H207.299V99.1601H210.676V100.123H207.299V102.453H211.244V103.44H205.948V96.0848H211.212ZM167.236 96.0614C167.608 96.0636 167.979 96.1053 168.34 96.1857C168.66 96.2536 168.964 96.3745 169.238 96.5428C169.492 96.6996 169.702 96.9135 169.848 97.1644C170.001 97.4393 170.075 97.7473 170.062 98.0576C170.068 98.3958 169.949 98.7254 169.725 98.9895C169.486 99.2591 169.176 99.4651 168.826 99.5872C169.042 99.6403 169.247 99.7241 169.436 99.8359C169.607 99.9367 169.758 100.066 169.881 100.216C170.131 100.52 170.265 100.896 170.26 101.281C170.268 101.6 170.194 101.917 170.046 102.205C169.906 102.468 169.703 102.696 169.453 102.872C169.182 103.058 168.878 103.195 168.555 103.276C168.19 103.373 167.813 103.423 167.434 103.424L164.617 103.416V96.0614H167.236ZM242.17 96.0694L244.782 103.424H243.391L242.846 101.715H240.284L239.724 103.424H238.324L240.984 96.0694H242.17ZM252.18 96.0694V97.0709H250.409V102.422H252.18V103.424H247.304V102.422H249.041V97.0709H247.303V96.0694H252.18ZM225.637 96.0694L228.248 103.424H226.856L226.345 101.715H223.783L223.223 103.424H221.823L224.483 96.0694H225.637ZM306.37 96.0614V102.43H310.283V103.416H305.019V96.0614H306.37ZM298.132 96.0614V102.43H302.045V103.416H296.781V96.0614H298.132ZM191.984 96.046C192.376 96.047 192.767 96.0967 193.146 96.1937C193.478 96.2745 193.791 96.414 194.068 96.6049C194.325 96.7863 194.531 97.0236 194.67 97.2962C194.819 97.6001 194.892 97.9322 194.884 98.2669C194.887 98.4962 194.851 98.7245 194.777 98.9428C194.707 99.1407 194.604 99.3269 194.472 99.4943C194.339 99.6602 194.181 99.8068 194.002 99.9289C193.813 100.057 193.608 100.164 193.392 100.248L195.131 103.354V103.416H193.689L192.124 100.535H190.748V103.401H189.389V96.046H191.984ZM256.662 96.0614L259.322 101.109V96.0614H260.69L260.682 103.416H259.322L256.653 98.3604V103.416H255.294V96.0614H256.662ZM198.896 96.0614L201.557 101.109V96.0614H202.924V103.416H201.565L198.896 98.3604V103.416H197.529V96.0614H198.896ZM281.318 96.0614V99.168H284.127V96.0614H285.446L285.437 103.416H284.127V100.131H281.326V103.416H280.009V96.0614H281.318ZM137.464 96.0614L137.431 97.0635H134.91V103.416H133.567V97.0635H131.096V96.0614H137.464ZM141.072 96.0614V99.168H143.865V96.0614H145.183V103.416H143.864V100.131H141.072V103.416H139.763V96.0614H141.072ZM175.466 96.9933C175.197 96.9848 174.933 97.0554 174.709 97.1952C174.507 97.3296 174.343 97.5081 174.231 97.7154C174.107 97.9447 174.024 98.1912 173.984 98.4454C173.937 98.7178 173.912 98.9931 173.909 99.269V100.216C173.914 100.492 173.941 100.768 173.992 101.04C174.034 101.294 174.118 101.54 174.239 101.77C174.35 101.979 174.514 102.161 174.717 102.297C174.941 102.438 175.206 102.509 175.475 102.5C175.746 102.509 176.014 102.438 176.241 102.297C176.446 102.16 176.616 101.979 176.735 101.77C176.864 101.542 176.953 101.295 176.999 101.04C177.05 100.768 177.078 100.492 177.081 100.216L177.073 99.269C177.07 98.9928 177.043 98.7173 176.991 98.4454C176.945 98.1903 176.856 97.9438 176.727 97.7154C176.608 97.5077 176.438 97.3295 176.233 97.1952C176.005 97.0557 175.738 96.9852 175.467 96.9933H175.466ZM167.516 100.077L165.976 100.085V102.414H167.451C167.649 102.414 167.846 102.385 168.036 102.329C168.201 102.278 168.354 102.199 168.489 102.096C168.617 101.999 168.721 101.877 168.794 101.739C168.867 101.59 168.904 101.428 168.901 101.265C168.903 101.095 168.869 100.926 168.802 100.768C168.743 100.626 168.65 100.498 168.53 100.395C168.402 100.291 168.254 100.211 168.094 100.162C167.907 100.106 167.712 100.077 167.516 100.077ZM219.195 99.7116V100.682H214.68V99.7116H219.195ZM225.076 97.8009L224.129 100.682H226.007L225.076 97.8009ZM241.577 97.8009L240.63 100.682H242.508L241.577 97.8009ZM191.993 97.0321H190.757L190.748 99.5564H191.992C192.201 99.5582 192.41 99.5294 192.61 99.4709C192.787 99.4172 192.952 99.3329 193.096 99.2222C193.233 99.1176 193.343 98.985 193.417 98.8344C193.496 98.6679 193.535 98.4876 193.532 98.3057C193.536 98.1196 193.5 97.9347 193.426 97.7622C193.358 97.6098 193.253 97.4744 193.121 97.3663C192.979 97.2528 192.813 97.1681 192.635 97.1177C192.426 97.0606 192.21 97.0321 191.992 97.0321H191.993ZM167.261 97.0709H165.976V99.1601H167.27C167.461 99.1601 167.653 99.1367 167.838 99.0905C168.001 99.0506 168.155 98.9821 168.291 98.8886C168.417 98.8024 168.521 98.691 168.596 98.5623C168.673 98.4262 168.712 98.274 168.711 98.1198C168.715 97.9561 168.679 97.7937 168.604 97.6458C168.533 97.5147 168.428 97.4025 168.299 97.3196C168.159 97.2309 168.003 97.1677 167.838 97.1331C167.648 97.0934 167.455 97.0726 167.261 97.0709Z" fill="#454545"/>
</svg>
