<svg width="111" height="116" viewBox="0 0 111 116" fill="none" xmlns="http://www.w3.org/2000/svg">
<path d="M0.922241 57.8515C0.922241 62.833 1.66758 67.6386 2.93516 72.2497H77.7537C86.2396 72.2497 93.1198 65.8026 93.1198 57.8515C93.1198 49.8968 86.2392 43.4537 77.7537 43.4537H2.93516C1.66758 48.0611 0.922241 52.87 0.922241 57.8515Z" fill="#454545"/>
<path d="M104.352 27.8357C106.499 25.9821 108.497 23.9915 110.329 21.8572C99.062 8.70112 81.7864 0.260254 62.3867 0.260254C38.1035 0.260254 17.2055 13.4956 7.23665 32.6558H91.2402C96.1037 32.6558 100.779 30.9243 104.352 27.8357Z" fill="#454545"/>
<path d="M91.2402 83.0479H7.23622C17.2093 102.205 38.1035 115.444 62.3863 115.444C81.7859 115.444 99.0616 106.999 110.329 93.8466C108.499 91.7152 106.501 89.7154 104.351 87.864C100.778 84.7722 96.1033 83.0479 91.2402 83.0479Z" fill="#454545"/>
</svg>
