<svg width="185" height="141" viewBox="0 0 185 141" fill="none" xmlns="http://www.w3.org/2000/svg">
<path d="M93.9458 0.96563C77.9081 0.618323 62.2091 5.34041 49.3547 14.3782C36.5002 23.4159 27.2313 36.2484 23.0275 50.8272C23.4192 50.6862 22.607 50.914 23.0275 50.8272C-6.7325 69.2737 -7.0896 109.47 21.1383 129.956L21.1671 129.902L21.1095 130.129C30.1323 136.531 41.1334 139.974 52.4304 139.93H92.1488L92.3907 140.126H132.259C183.617 140.522 204.254 77.9194 161.719 50.8272C158.068 38.1007 150.539 26.6594 140.063 17.9152L139.735 18.2244L139.764 17.8555C127.084 7.3195 110.863 1.33624 93.9573 0.960207L93.9458 0.96563ZM91.187 30.965C100.725 30.6558 110.534 33.6227 117.946 39.2689C122.524 42.8628 126.186 47.3789 128.662 52.4839C131.139 57.5889 132.366 63.1525 132.253 68.7639V72.5226C159.369 72.0128 159.369 110.576 132.253 110.067H92.385L92.3274 110.121V109.839H52.4304C49.6082 109.839 46.8205 109.275 44.2402 108.174C31.5518 102.777 28.5222 87.0694 38.3596 77.7784C48.2316 68.5144 64.877 71.3673 70.6366 83.3161L93.7673 61.5339C86.0792 52.097 74.9969 45.6281 62.6019 43.3423C62.7517 43.288 62.9014 43.1741 63.0224 43.2012C66.6108 39.4851 70.9568 36.4871 75.8014 34.3858C80.646 32.2846 85.8902 31.1231 91.2215 30.9704L91.187 30.965Z" fill="#454545"/>
</svg>
