<svg width="121" height="115" viewBox="0 0 121 115" fill="none" xmlns="http://www.w3.org/2000/svg">
<path d="M60.2688 0.818848C29.7597 0.818848 31.6622 13.3533 31.6622 13.3533L31.6972 26.3409H60.8044V30.239H20.1474C20.1474 30.239 0.622437 28.139 0.622437 57.3043C0.622437 86.4697 17.6592 85.4314 17.6592 85.4314H27.8222V71.9012C27.8222 71.9012 27.2765 55.7611 44.5937 55.7611H73.4606C73.4606 55.7611 89.6814 56.0065 89.6814 40.9047V15.9301C89.6814 15.9301 92.1395 0.818848 60.2638 0.818848H60.2688ZM44.2182 9.54958C47.1119 9.54958 49.4549 11.7677 49.4549 14.5143C49.4549 17.2562 47.1119 19.4743 44.2182 19.4743C41.3195 19.4743 38.9815 17.2562 38.9815 14.5143C38.9815 11.7677 41.3195 9.54958 44.2182 9.54958Z" fill="#454545"/>
<path d="M61.1349 114.082C91.6339 114.082 89.7315 101.548 89.7315 101.548L89.6964 88.5603H60.5892V84.6622H101.256C101.256 84.6622 120.781 86.7623 120.781 57.5969C120.781 28.4316 103.739 29.4698 103.739 29.4698H93.5764V43.0001C93.5764 43.0001 94.1221 59.1401 76.8049 59.1401H47.943C47.943 59.1401 31.7222 58.8947 31.7222 73.9965V98.9711C31.7222 98.9711 29.2591 114.082 61.1349 114.082ZM77.1854 105.352C74.2867 105.352 71.9487 103.134 71.9487 100.387C71.9487 97.645 74.2867 95.4269 77.1854 95.4269C80.0791 95.4269 82.4221 97.645 82.4221 100.387C82.4221 103.134 80.0791 105.352 77.1854 105.352Z" fill="#454545"/>
</svg>
