<svg width="140" height="131" viewBox="0 0 140 131" fill="none" xmlns="http://www.w3.org/2000/svg">
<path d="M91.9914 79.0453C92.1574 83.4721 94.6533 83.4286 97.6244 83.3361C101.62 83.2654 103.813 82.1017 105.816 83.0207C105.782 82.9174 105.158 81.1336 102.393 81.4491C102.766 80.5608 102.89 79.5958 102.754 78.6483L102.759 78.6755C102.393 74.2488 99.6853 70.7302 96.7085 70.8281C93.7317 70.926 91.8368 74.5968 92.0028 79.0399L91.9914 79.0453ZM96.4223 73.6397H96.4452C96.8323 73.7347 97.164 73.9715 97.3677 74.2983C97.5713 74.6251 97.6304 75.0153 97.5319 75.3834C97.4334 75.7515 97.1854 76.0675 96.8422 76.2623C96.499 76.4571 96.0885 76.5147 95.7006 76.4226C95.3128 76.3305 94.9791 76.0961 94.7728 75.7708C94.5664 75.4455 94.5041 75.0558 94.5996 74.687C94.695 74.3182 94.9404 74.0003 95.282 73.803C95.6236 73.6057 96.0337 73.5504 96.4223 73.6397ZM51.2547 84.1356H53.1037C56.0806 84.1084 58.5479 84.3749 58.5078 79.9372C58.4677 75.4996 56.3897 71.9103 53.43 71.9429C50.4704 71.9756 47.5794 75.6029 47.7512 80.0351C47.7512 80.9705 47.9401 81.8569 48.2836 82.6727L48.2664 82.6237C47.5692 82.7345 46.9067 82.9916 46.3274 83.3764C45.748 83.7612 45.2663 84.2639 44.9175 84.848L44.906 84.8697C46.9453 84.121 49.1499 83.8704 51.3176 84.141L51.2547 84.1356ZM53.8365 74.711C54.2361 74.7146 54.6179 74.8684 54.8984 75.1387C55.1789 75.409 55.3354 75.7739 55.3335 76.1535C55.3316 76.533 55.1715 76.8965 54.8883 77.1643C54.6051 77.432 54.2218 77.5824 53.8222 77.5824C53.4226 77.5824 53.0393 77.432 52.756 77.1643C52.4728 76.8965 52.3128 76.533 52.3109 76.1535C52.309 75.7739 52.4654 75.409 52.7459 75.1387C53.0265 74.8684 53.4083 74.7146 53.8079 74.711H53.8365ZM69.1557 27.4577V24.1838H71.0334V39.2968H68.1939V47.7534H82.809V39.2968H79.9925V24.1838H81.8416V27.4577H90.1938V16.2602H60.792V27.4577H69.1557Z" fill="#454545"/>
<path d="M139.123 49.0531C139.069 48.096 138.974 47.1407 138.836 46.1872C138.773 45.7092 138.689 45.2338 138.584 44.7623C138.487 44.2335 138.357 43.7106 138.195 43.1961L138.224 43.2994L138.115 42.9242L137.84 42.7121C136.326 41.6121 134.691 40.6712 132.963 39.9059L132.797 39.8407C131.367 39.2039 129.908 38.6287 128.423 38.1167C124.49 27.4307 117.428 18.0333 108.066 11.0286L107.935 10.9307C98.9926 4.32318 87.6063 0.336914 75.241 0.336914C62.8757 0.336914 51.4894 4.32318 42.4272 11.0177L42.5474 10.9307C35.2517 16.3007 29.3361 23.1756 25.2475 31.0361L25.0872 31.3733C24.114 33.1624 23.0836 35.3921 22.1905 37.6762L22.036 38.1222C20.5516 38.6341 19.0922 39.2093 17.6623 39.8461C15.8523 40.6359 14.1397 41.6135 12.5559 42.761L12.6189 42.7175L12.3384 42.9296L12.2296 43.3049C12.0846 43.7871 11.9625 44.2747 11.8632 44.7678C11.6456 45.9236 11.4871 47.0888 11.3881 48.2592H11.411C11.3881 48.5238 11.369 48.7921 11.3537 49.064C11.1496 52.9948 11.6096 56.9312 12.7162 60.7237L12.6532 60.4627C12.9318 61.3981 13.2582 62.3171 13.6322 63.2199C13.8154 63.6604 14.0214 64.1281 14.2447 64.5849C14.3535 64.8133 14.4794 65.0254 14.5996 65.2647L14.8 65.5801C14.8801 65.7052 14.9317 65.7976 15.0462 65.9554L15.2465 66.2545L15.5671 66.4122C15.9106 66.5808 16.1911 66.7004 16.4888 66.8527L17.3818 67.2388L17.8799 67.4346C13.227 71.5025 9.13389 76.1126 5.69778 81.1554L5.52031 81.4327L0.677246 88.6983L7.48387 83.0262C12.1331 79.3745 17.0859 76.0863 22.2936 73.1937L22.826 72.9218L22.9576 73.9605L25.0471 90.047C25.0638 90.1729 25.1081 90.2941 25.1771 90.4027C25.2462 90.5114 25.3384 90.6051 25.4479 90.6778L29.0258 93.0652L29.2033 93.6417C29.2891 93.9082 29.3635 94.1747 29.4551 94.4466L30.2738 96.785C31.9929 101.919 34.5235 106.774 37.7788 111.186L37.6586 111.017L37.1949 111.142C35.3458 110.326 28.8426 107.466 26.6672 106.53L22.1047 104.589L24.8067 108.586C25.0013 108.874 29.6555 115.77 33.451 120.425C35.357 123.124 37.9325 125.335 40.9504 126.865C43.9683 128.394 47.336 129.195 50.7566 129.197H51.0772H51.06C52.2631 129.193 53.4651 129.127 54.6608 129.001L54.512 129.012C57.2541 128.708 59.3093 128.479 60.8721 128.284C65.6956 130.015 70.8117 130.894 75.968 130.878C81.4523 130.878 86.6961 129.904 91.5162 128.131L91.2243 128.229C94.1439 127.163 96.6455 125.967 98.9984 124.564L98.8152 124.667L98.9468 124.635C102.702 123.759 106.956 122.813 109.062 122.247C109.4 122.16 109.818 122.062 110.259 121.964C112.415 121.712 114.479 120.981 116.285 119.833C118.091 118.684 119.587 117.149 120.655 115.351L120.689 115.286C123.317 110.277 127.61 102.615 127.65 102.539L129.66 98.9712L125.761 100.586C125.549 100.673 120.603 102.724 118.027 104.002C117.941 104.051 117.827 104.094 117.729 104.143C119.012 101.75 120.208 98.9277 121.136 95.9965L121.239 95.6267L122.653 90.0959L126.717 81.4599C126.717 81.4599 127.856 72.0245 127.879 72.0299L128.274 68.4189C128.629 68.2721 130.799 68.1361 131.223 67.9784C131.829 67.75 132.43 67.5379 133.037 67.2823L133.925 66.9125C134.239 66.7711 134.52 66.6515 134.846 66.472L135.167 66.3143L135.367 66.0152C135.472 65.8871 135.567 65.7527 135.653 65.6127L135.665 65.5964L135.859 65.2593C135.974 65.0744 136.094 64.8514 136.203 64.623L136.22 64.5795C136.441 64.1335 136.65 63.6785 136.844 63.2145C137.211 62.3081 137.533 61.389 137.812 60.4572C138.895 56.7187 139.33 52.8375 139.1 48.9661L139.105 49.0531H139.123ZM46.4116 72.3508C49.3531 70.5629 52.4019 68.9396 55.5424 67.489L56.1035 67.2551C62.599 66.7874 69.1061 66.5536 75.6246 66.5536C77.3305 66.5536 79.0078 66.5753 80.6623 66.6025C79.5545 67.4643 78.3858 68.2529 77.1645 68.9627L77.0214 69.0389L72.8138 71.4589C71.0126 71.6742 69.231 72.0177 67.4841 72.4867L67.736 72.4269C67.6562 72.4443 67.5804 72.4756 67.5127 72.5194H67.5184C67.312 72.6316 67.1584 72.8144 67.0891 73.0306L62.7899 86.5012L39.8053 91.3576L32.5636 86.5339L30.457 70.3332C35.8299 69.4037 41.2354 68.6528 46.6635 68.0817C45.9422 68.8939 45.2609 69.7386 44.6198 70.616L40.6984 75.9781L46.4116 72.3508ZM77.4164 128.724C73.4885 128.951 69.5486 128.539 65.7667 127.506L66.0128 127.566C66.3277 127.506 66.5567 127.473 66.8372 127.441C70.7627 126.985 74.3647 125.145 76.9298 122.285L76.947 122.263H77.9888C78.4869 122.263 78.9449 122.225 79.4315 122.204C80.7081 122.111 81.8644 121.953 82.9979 121.736L82.809 121.769L83.1639 122.106C85.2878 124.145 88.1616 125.477 91.3617 125.706H91.4017C87.2972 127.337 82.54 128.436 77.5595 128.768L77.4164 128.773V128.724ZM77.7541 120.833C78.3209 119.626 78.756 118.685 79.0765 117.978C79.8856 118.837 80.7119 119.682 81.5553 120.512C80.8233 120.617 80.0884 120.703 79.3513 120.768C78.8876 120.768 78.3781 120.839 77.9259 120.839L77.7541 120.833ZM66.4823 93.038L68.5374 92.5976C68.7012 92.5609 68.8522 92.4845 68.9756 92.3758C69.099 92.2671 69.1906 92.1299 69.2416 91.9776L73.5351 78.5668C74.8521 78.3772 76.1921 78.3808 77.508 78.5776L77.4336 78.5668L81.853 92.3691C81.906 92.5393 82.01 92.6911 82.1523 92.806C82.2947 92.9209 82.4691 92.994 82.6544 93.0163L84.7211 93.2338L112.932 96.301L113.035 96.3065C113.234 96.3055 113.428 96.2467 113.591 96.1379L116.424 94.2562L120.014 91.8525C119.857 92.4923 119.685 93.1287 119.498 93.7613C119.231 94.5698 118.949 95.3729 118.651 96.1705C117.545 99.2289 116.192 102.202 114.604 105.062L114.781 104.709C114.369 104.734 113.957 104.747 113.545 104.747C112.159 104.747 110.774 104.643 109.24 104.507C106.484 104.249 103.73 103.968 100.979 103.664L92.5696 97.3343C92.4436 97.2418 92.3349 97.144 92.2204 97.0515C91.8915 96.7364 91.5 96.4866 91.0685 96.3167C90.637 96.1468 90.1743 96.0601 89.7072 96.0617H89.65C87.0898 96.3305 84.5758 96.9061 82.1679 97.7748L82.3797 97.7095C83.0071 97.3021 83.5331 96.7693 83.9207 96.1483C84.3084 95.5273 84.5483 94.8332 84.6237 94.1148V94.0931C82.2845 95.9595 79.4282 97.1453 76.3974 97.5083L76.3172 97.5138C73.0612 97.8102 69.8038 96.9606 67.1635 95.1264L67.2036 95.1535C67.425 96.1791 67.9701 97.1163 68.7664 97.8401C67.3171 97.6723 65.8585 97.587 64.3985 97.5845H64.3928C63.8375 97.5845 63.2707 97.5845 62.7326 97.6225C59.5898 97.7802 55.1646 102.289 52.0676 106.83C50.5448 107.27 45.7704 108.728 40.2576 110.267C37.6613 106.83 35.4618 103.138 33.6971 99.254L33.5425 98.8679C32.9686 97.6139 32.4585 96.3345 32.0141 95.0339L33.3365 95.9095L36.611 98.1011L37.7044 98.8244C37.8589 98.9277 38.0536 98.9875 38.2597 98.993L38.3684 98.9984L38.4772 98.993L66.4765 93.0652L66.4823 93.038ZM83.891 73.036C83.8439 72.8904 83.7597 72.7582 83.6458 72.651C83.532 72.5438 83.392 72.4649 83.2384 72.4215C81.3217 71.9053 79.3539 71.5558 77.3706 71.3773L77.2275 71.3665L77.7828 71.3284C84.4806 70.4583 90.503 69.0443 96.2563 67.092L95.6208 67.2823C105.095 67.9675 113.613 69.028 121.983 70.4909L120.477 70.2734L118.411 84.054L111.112 88.905L88.1673 86.4251L83.891 73.036ZM134.262 54.4697C134.01 56.2263 133.157 59.7013 133.157 59.7013L132.499 59.8046C132.156 59.7122 128.927 58.9291 123.368 57.9393L123.883 57.8306C125.223 57.5206 126.351 57.1725 127.444 56.7483L127.272 56.8082C127.919 56.5526 128.446 56.3078 128.956 56.0305L128.875 56.0685C129.39 55.802 129.856 55.4587 130.255 55.0516C124.714 56.781 113.178 55.9924 102.971 54.9918C93.6536 54.0176 84.2886 53.5075 74.9147 53.4636H74.8174C64.9955 53.5268 55.1836 54.0732 45.4212 55.1005L46.6864 54.9918C36.4679 55.9978 24.9899 56.781 19.4083 55.0516C19.804 55.4506 20.2616 55.7899 20.7651 56.0577L20.7937 56.074C21.2402 56.3078 21.7898 56.558 22.3508 56.7755L22.4596 56.8136C23.3813 57.178 24.509 57.5314 25.6711 57.8088L25.8486 57.8469C26.255 57.9339 26.6672 58.0209 27.0794 58.0916C22.0016 59.0052 19.0763 59.7339 18.7443 59.8155C18.7443 59.8155 17.5765 59.995 17.3188 59.1466C16.8307 57.674 16.4689 56.1663 16.2369 54.6383L16.214 54.4697C15.9773 52.7787 15.8606 51.0745 15.8648 49.3686V49.1293V49.1402V48.2646C15.8648 47.6664 15.9106 47.0682 15.9735 46.47C16.8094 45.3497 17.8913 44.4523 19.1565 43.8324L19.208 43.8106C20.5189 43.071 22.1505 42.2662 23.8163 41.5429L24.1655 41.4069C27.4388 40.3497 30.7994 39.5547 34.2123 39.0304L34.5959 38.9814C37.8876 38.4104 49.646 36.9312 50.5276 36.6158C51.4092 36.3003 56.4756 32.5751 57.3629 32.2651C55.5138 32.5588 29.6669 36.3058 28.5163 36.6484C36.8972 15.8306 53.3442 5.68819 75.241 5.68819C97.1379 5.68819 113.579 15.2596 121.966 36.0828C114.123 34.2827 104.494 32.7383 94.682 31.7757L93.6916 31.6995C94.5847 32.0095 99.6109 35.3704 100.544 35.4846C107.967 36.4662 115.329 37.8314 122.595 39.5742L121.153 39.2805C122.887 39.9494 124.628 40.6347 126.311 41.3906C128.326 42.2498 129.952 43.0547 131.532 43.9303L131.268 43.7943C132.579 44.4415 133.661 45.3388 134.48 46.4319L134.497 46.4591C134.583 47.3346 134.612 48.2374 134.623 49.1293V49.3251C134.623 51.136 134.491 52.9198 134.245 54.6655L134.268 54.4642L134.262 54.4697Z" fill="#454545"/>
</svg>
