<svg width="142" height="133" viewBox="0 0 142 133" fill="none" xmlns="http://www.w3.org/2000/svg">
<path d="M62.9278 63.5637L90.2875 83.8107L72.1601 41.8373L62.9278 63.5637ZM71 0.702148C32.3068 0.702148 0.959106 30.1296 0.959106 66.4526C0.959106 102.776 32.3068 132.203 71 132.203C109.693 132.203 141.041 102.776 141.041 66.4526C141.041 30.1296 109.693 0.702148 71 0.702148ZM104.834 95.5184C104.819 96.1329 104.674 96.7385 104.409 97.3005C104.144 97.8625 103.763 98.3698 103.288 98.7932C102.814 99.2166 102.255 99.5479 101.643 99.768C101.032 99.9881 100.38 100.093 99.7255 100.076C98.3554 100.076 97.3091 99.5826 95.8514 98.4689L59.7147 71.0716L47.5845 99.5826H37.0958L67.7168 30.5159C68.0602 29.6728 68.6755 28.9515 69.4768 28.4527C70.2781 27.9539 71.2254 27.7025 72.1863 27.7338C74.0774 27.668 75.8591 28.7611 76.5201 30.5159L104.383 93.4842C104.633 94.1047 104.839 94.7705 104.839 95.391V95.5184H104.834Z" fill="#454545"/>
</svg>
