<svg width="154" height="145" viewBox="0 0 154 145" fill="none" xmlns="http://www.w3.org/2000/svg">
<path d="M0.388672 0.987793H153.763V144.967H0.388672V0.987793Z" fill="url(#paint0_linear_47_30)"/>
<path d="M48.3181 96.3666H55.9868V92.7638H48.3181V96.3666ZM115.364 69.672C114.932 64.2064 112.085 60.1817 107.563 58.76C103.922 57.6199 99.9112 58.4253 96.8569 60.7622C95.0056 57.3337 92.2215 53.9755 89.9251 51.8478C81.6884 44.2164 72.6046 42.271 62.9192 46.0634C54.2734 49.4401 46.4009 60.5366 46.4009 69.3441V69.6866C41.2114 71.3328 37.0241 74.9109 35.0399 79.4727L38.5902 80.8337C41.1191 75.0206 47.0378 73.1978 48.7914 72.7777C49.2045 72.6786 49.5706 72.4532 49.8321 72.1371C50.0935 71.821 50.2354 71.4321 50.2353 71.0319V69.3441C50.2353 62.0642 57.2462 52.1813 64.3937 49.3889C72.6279 46.1663 80.1013 47.8018 87.2332 54.413C90.266 57.2217 93.2316 61.3887 94.4454 64.55C94.5621 64.8556 94.7647 65.1258 95.0317 65.332C95.2988 65.5381 95.6203 65.6726 95.9622 65.721C96.3041 65.7695 96.6535 65.7301 96.9735 65.6071C97.2935 65.4841 97.572 65.2821 97.7795 65.0225C99.898 62.3774 103.333 61.2318 106.349 62.1778C109.676 63.2239 111.585 66.4921 111.585 71.1455C111.585 71.5718 111.746 71.9842 112.039 72.3094C112.333 72.6347 112.74 72.8516 113.188 72.9216C114.593 73.1415 126.922 75.4098 126.922 87.3589C126.922 99.7355 114.041 99.9661 113.502 99.97H69.4071V103.573H113.506C119.472 103.562 130.757 100.161 130.757 87.3595C130.757 76.1882 121.706 71.1585 115.364 69.672ZM59.8212 96.3666H86.6617V92.7638H59.8212V96.3666ZM52.1525 103.573H63.6555V99.97H52.1525V103.573ZM23.3948 103.573H29.1463V99.97H23.3948V103.573ZM29.1463 89.1609H46.4009V85.5575H29.1463V89.1609ZM25.312 96.3666H44.4838V92.7638H25.312V96.3666ZM52.1525 89.1609H65.5727V85.5575H52.1525V89.1609ZM32.9807 103.573H48.3181V99.97H32.9807V103.573Z" fill="white"/>
<defs>
<linearGradient id="paint0_linear_47_30" x1="0.388672" y1="144.967" x2="144.081" y2="-8.10147" gradientUnits="userSpaceOnUse">
<stop stop-color="#454545"/>
<stop offset="1" stop-color="#454545"/>
</linearGradient>
</defs>
</svg>
