<svg width="154" height="145" viewBox="0 0 154 145" fill="none" xmlns="http://www.w3.org/2000/svg">
<path d="M0.101929 0.987793H153.476V144.967H0.101929V0.987793Z" fill="url(#paint0_linear_47_31)"/>
<path d="M105.661 85.175C105.661 78.1392 99.522 72.4149 91.9767 72.4149C84.432 72.4149 78.2958 78.1392 78.2958 85.175C78.2958 92.2109 84.432 97.9346 91.9773 97.9346C99.522 97.9346 105.661 92.2103 105.661 85.175ZM109.515 85.175C109.515 94.1929 101.648 101.529 91.9773 101.529C82.3081 101.529 74.4411 94.1929 74.4411 85.175C74.4411 76.1567 82.3081 68.821 91.9773 68.821C101.648 68.821 109.515 76.1567 109.515 85.175ZM125.696 109.824L112.259 98.5381C111.173 99.9612 109.921 101.266 108.526 102.427L121.943 113.712C123.088 114.675 124.869 114.585 125.904 113.518C126.933 112.45 126.841 110.791 125.696 109.824ZM91.9773 104.763C103.561 104.763 112.985 95.9757 112.985 85.1745C112.985 74.3721 103.561 65.586 91.9773 65.586C80.3945 65.586 70.9704 74.3721 70.9704 85.175C70.9704 95.9757 80.3945 104.763 91.9773 104.763ZM128.767 115.924C128.14 116.57 127.375 117.087 126.522 117.439C125.669 117.792 124.746 117.973 123.814 117.971C122.173 117.974 120.589 117.408 119.365 116.382L105.414 104.65C101.534 106.987 96.9302 108.358 91.9773 108.358C78.2689 108.358 67.1163 97.9577 67.1163 85.175C67.1163 72.3913 78.2689 61.9922 91.9773 61.9922C105.688 61.9922 116.84 72.3913 116.84 85.175C116.84 88.8426 115.898 92.3009 114.264 95.3863L128.276 107.155C130.997 109.45 131.217 113.381 128.767 115.924ZM40.9001 53.8866C40.9001 54.8213 40.9618 55.7521 41.0798 56.6526C41.1396 57.1111 41.009 57.5736 40.715 57.9441C40.421 58.3145 39.9863 58.5644 39.5011 58.6418C34.7621 59.7836 26.9628 63.2368 26.9628 73.5993C26.9628 81.4243 31.5898 85.7425 35.4733 87.9894C36.7991 88.7689 38.3676 89.184 40.023 89.2003L63.2634 89.22L63.2598 92.8144L40.002 92.7947C37.6139 92.7711 35.348 92.1636 33.4297 91.0371C29.5815 88.8099 23.1081 83.5772 23.1081 73.5993C23.1081 61.5715 31.9271 57.125 37.1035 55.5542C37.065 54.999 37.0458 54.4429 37.0459 53.8866C37.0459 44.06 44.1934 33.8684 53.6715 30.1824C64.757 25.8517 76.5015 27.9991 85.0832 35.9224C87.7433 38.3774 89.9301 41.3587 91.6088 44.8075C93.8639 43.0662 96.6426 42.1045 99.5723 42.1045C105.329 42.1045 111.808 46.1787 112.963 55.089C118.353 56.2476 129.743 60.2987 129.743 73.7377C129.743 79.1043 127.939 83.5356 124.379 86.9107L121.631 84.3893C124.457 81.7122 125.889 78.1285 125.889 73.7377C125.889 61.9832 115.335 59.0586 110.794 58.3488C110.54 58.3092 110.296 58.2218 110.078 58.0919C109.86 57.9619 109.672 57.792 109.526 57.5924C109.24 57.2061 109.129 56.7294 109.216 56.2662C108.586 48.9699 103.937 45.6989 99.5723 45.6989C96.8182 45.6989 94.236 46.9497 92.4859 49.1313C92.2768 49.3918 91.9966 49.5944 91.675 49.7177C91.3534 49.8411 91.0022 49.8806 90.6586 49.8321C90.3158 49.7846 89.9931 49.6513 89.7242 49.4461C89.4553 49.241 89.2504 48.9715 89.1309 48.6662C87.5522 44.5887 85.2785 41.1591 82.3716 38.478C74.9348 31.6109 64.7647 29.7493 55.1579 33.5001C47.1615 36.6091 40.9001 45.5622 40.9001 53.8866Z" fill="white"/>
<defs>
<linearGradient id="paint0_linear_47_31" x1="0.101929" y1="144.967" x2="143.794" y2="-8.10147" gradientUnits="userSpaceOnUse">
<stop stop-color="#454545"/>
<stop offset="1" stop-color="#454545"/>
</linearGradient>
</defs>
</svg>
