<svg width="98" height="133" viewBox="0 0 98 133" fill="none" xmlns="http://www.w3.org/2000/svg">
<path d="M32.187 0.546143C25.1342 0.553344 18.3723 3.18324 13.3852 7.8588C8.39804 12.5344 5.59288 18.8737 5.5852 25.486C5.5852 33.0042 9.16436 39.7379 14.7943 44.3133C10.5524 46.4452 7.00619 49.6153 4.53292 53.4862C2.05966 57.3572 0.751815 61.7843 0.748505 66.2966C0.748505 74.7308 5.25631 82.1855 12.1147 86.7019C8.60897 88.995 5.74513 92.0473 3.76637 95.5996C1.78761 99.152 0.75236 103.1 0.748505 107.107C0.748505 120.86 12.6806 132.047 27.3503 132.047C42.0201 132.047 53.9522 120.86 53.9522 107.107V50.4258H70.8806C85.5503 50.4258 97.4825 39.2391 97.4825 25.486C97.4825 11.7328 85.5503 0.546143 70.8806 0.546143H32.187ZM32.187 9.61517H70.8806C80.2155 9.61517 87.8091 16.7344 87.8091 25.486C87.8091 34.2376 80.2155 41.3568 70.8806 41.3568H32.187C22.8522 41.3568 15.2586 34.2376 15.2586 25.486C15.2586 16.7344 22.8522 9.61517 32.187 9.61517ZM27.3503 50.4258H44.2788V82.1674H27.3503C18.0155 82.1674 10.4219 75.0482 10.4219 66.2966C10.4219 57.545 18.0155 50.4258 27.3503 50.4258ZM73.299 50.4258C68.1679 50.4258 63.247 52.3367 59.6187 55.7383C55.9905 59.1398 53.9522 63.7533 53.9522 68.5638C53.9522 73.3743 55.9905 77.9878 59.6187 81.3894C63.247 84.7909 68.1679 86.7019 73.299 86.7019C78.4301 86.7019 83.351 84.7909 86.9792 81.3894C90.6074 77.9878 92.6458 73.3743 92.6458 68.5638C92.6458 63.7533 90.6074 59.1398 86.9792 55.7383C83.351 52.3367 78.4301 50.4258 73.299 50.4258ZM27.3503 91.2364H44.2788V107.107C44.2788 115.859 36.6852 122.978 27.3503 122.978C18.0155 122.978 10.4219 115.859 10.4219 107.107C10.4219 98.3556 18.0155 91.2364 27.3503 91.2364Z" fill="#454545"/>
</svg>
