<svg width="139" height="175" viewBox="0 0 139 175" fill="none" xmlns="http://www.w3.org/2000/svg">
<path d="M136.23 59.7901L75.7622 2.79978C74.9343 2.01898 73.9513 1.39959 72.8694 0.977007C71.7875 0.554421 70.6278 0.336914 69.4567 0.336914C68.2855 0.336914 67.1259 0.554421 66.044 0.977007C64.962 1.39959 63.979 2.01898 63.1511 2.79978L50.6006 14.6303L66.5268 29.6427C68.4051 29.0382 70.4258 28.9437 72.3584 29.3698C74.2909 29.796 76.0575 30.7257 77.4564 32.0528C78.8553 33.38 79.8302 35.0511 80.2699 36.8755C80.7095 38.7 80.5962 40.6041 79.9428 42.3707L95.2891 56.8447C97.5595 56.0912 100.035 56.0889 102.307 56.8382C104.579 57.5876 106.512 59.0439 107.789 60.9674C109.066 62.8909 109.609 65.1669 109.331 67.4206C109.052 69.6744 107.967 71.7715 106.256 73.3666C104.523 75.0102 102.238 76.0356 99.7921 76.2677C97.3462 76.4999 94.8906 75.9243 92.8448 74.6393C90.7991 73.3544 89.2901 71.4398 88.5755 69.2225C87.861 67.0053 87.9853 64.623 88.9272 62.4825L74.6197 48.9876V84.5036C76.7944 85.5183 78.5346 87.205 79.55 89.2825C80.5654 91.36 80.7948 93.7028 80.2 95.9204C79.6051 98.138 78.2219 100.096 76.2809 101.469C74.3399 102.842 71.9584 103.546 69.5333 103.465C67.1083 103.383 64.7861 102.52 62.954 101.021C61.1218 99.5208 59.8904 97.4743 59.4648 95.2224C59.0393 92.9704 59.4454 90.649 60.6155 88.6451C61.7856 86.6411 63.6489 85.0758 65.8949 84.2098V48.3676C64.5991 47.867 63.4212 47.1297 62.4291 46.198C61.437 45.2664 60.6503 44.1588 60.1144 42.9393C59.5786 41.7197 59.3041 40.4122 59.3068 39.0921C59.3096 37.772 59.5894 36.4656 60.1303 35.2479L44.4379 20.4476L2.97796 59.529C2.14964 60.3094 1.49256 61.236 1.04425 62.2559C0.595948 63.2757 0.365204 64.3689 0.365204 65.4728C0.365204 66.5767 0.595948 67.6699 1.04425 68.6897C1.49256 69.7096 2.14964 70.6362 2.97796 71.4166L63.4454 128.415C64.2733 129.196 65.2563 129.815 66.3382 130.238C67.4202 130.66 68.5798 130.878 69.751 130.878C70.9221 130.878 72.0817 130.66 73.1637 130.238C74.2456 129.815 75.2286 129.196 76.0565 128.415L136.238 71.6858C137.909 70.1087 138.847 67.9709 138.847 65.7421C138.847 63.5132 137.909 61.3754 136.238 59.7982" fill="#454545"/>
<path d="M58.6799 168.772C57.1306 168.772 55.7026 168.53 54.3959 168.044C53.1079 167.54 51.9786 166.831 51.0079 165.916C50.0559 165.002 49.3092 163.928 48.7679 162.696C48.2452 161.464 47.9839 160.111 47.9839 158.636C47.9839 157.162 48.2452 155.808 48.7679 154.576C49.3092 153.344 50.0652 152.271 51.0359 151.356C52.0066 150.442 53.1452 149.742 54.4519 149.256C55.7586 148.752 57.1959 148.5 58.7639 148.5C60.4999 148.5 62.0586 148.79 63.4399 149.368C64.8399 149.947 66.0159 150.787 66.9679 151.888L64.0559 154.576C63.3466 153.83 62.5719 153.279 61.7319 152.924C60.8919 152.551 59.9772 152.364 58.9879 152.364C58.0359 152.364 57.1679 152.514 56.3839 152.812C55.5999 153.111 54.9186 153.54 54.3399 154.1C53.7799 154.66 53.3412 155.323 53.0239 156.088C52.7252 156.854 52.5759 157.703 52.5759 158.636C52.5759 159.551 52.7252 160.391 53.0239 161.156C53.3412 161.922 53.7799 162.594 54.3399 163.172C54.9186 163.732 55.5906 164.162 56.3559 164.46C57.1399 164.759 57.9986 164.908 58.9319 164.908C59.8279 164.908 60.6959 164.768 61.5359 164.488C62.3946 164.19 63.2252 163.695 64.0279 163.004L66.6039 166.28C65.5399 167.083 64.2986 167.699 62.8799 168.128C61.4799 168.558 60.0799 168.772 58.6799 168.772ZM62.4599 165.692V158.328H66.6039V166.28L62.4599 165.692ZM70.8174 168.436V148.836H75.3534V168.436H70.8174ZM84.0649 168.436V152.532H77.7929V148.836H94.8729V152.532H88.6009V168.436H84.0649Z" fill="#454545"/>
</svg>
