<svg width="139" height="131" viewBox="0 0 139 131" fill="none" xmlns="http://www.w3.org/2000/svg">
<path d="M63.6468 75.4051C62.8831 75.4049 62.1506 75.1194 61.61 74.611L57.3112 70.5696C57.0353 70.3191 56.8151 70.0193 56.6634 69.6877C56.5118 69.3561 56.4317 68.9994 56.4278 68.6383C56.4239 68.2772 56.4964 67.919 56.641 67.5846C56.7855 67.2502 56.9993 66.9463 57.2698 66.6906C57.5403 66.4349 57.8621 66.2325 58.2164 66.0953C58.5708 65.9581 58.9505 65.8887 59.3336 65.8914C59.7167 65.894 60.0953 65.9685 60.4475 66.1105C60.7997 66.2526 61.1184 66.4593 61.3849 66.7187L63.6468 68.8454L70.4613 62.4271C71.0023 61.9165 71.7363 61.6293 72.5019 61.6288C73.2674 61.6283 74.0019 61.9145 74.5436 62.4244C75.0854 62.9344 75.39 63.6263 75.3905 64.348C75.3911 65.0697 75.0875 65.762 74.5465 66.2727L65.6894 74.611C65.1459 75.1187 64.412 75.404 63.6468 75.4051ZM117.615 74.6055L126.466 66.2727C126.991 65.7597 127.282 65.0728 127.276 64.3597C127.269 63.6466 126.966 62.9645 126.431 62.4603C125.896 61.956 125.172 61.67 124.416 61.6638C123.659 61.6576 122.93 61.9317 122.386 62.4271L115.572 68.8454L113.31 66.7187C113.043 66.4593 112.725 66.2526 112.373 66.1105C112.02 65.9685 111.642 65.894 111.259 65.8914C110.876 65.8887 110.496 65.9581 110.142 66.0953C109.787 66.2325 109.465 66.4349 109.195 66.6906C108.924 66.9463 108.711 67.2502 108.566 67.5846C108.421 67.919 108.349 68.2772 108.353 68.6383C108.357 68.9994 108.437 69.3561 108.589 69.6877C108.74 70.0193 108.96 70.3191 109.236 70.5696L113.541 74.611C113.808 74.8642 114.125 75.0651 114.475 75.202C114.825 75.3389 115.2 75.4091 115.579 75.4086C115.958 75.4081 116.333 75.3369 116.682 75.199C117.031 75.0612 117.348 74.8595 117.615 74.6055ZM26.3893 40.6812L41.1434 32.06C41.9764 31.5742 42.6645 30.8964 43.1428 30.0905C43.6211 29.2847 43.8739 28.3773 43.8774 27.4539C43.8808 26.5305 43.6348 25.6215 43.1626 24.8125C42.6903 24.0035 42.0074 23.3211 41.178 22.8297L26.4239 14.0726C25.551 13.5542 24.5466 13.266 23.5154 13.2378C22.4842 13.2097 21.4638 13.4427 20.5605 13.9126C19.6573 14.3825 18.9042 15.072 18.3797 15.9095C17.8552 16.7469 17.5785 17.7016 17.5784 18.6741V36.0579C17.5801 37.0265 17.8559 37.9772 18.3774 38.8119C18.8989 39.6466 19.6471 40.335 20.545 40.8061C21.4429 41.2772 22.4578 41.514 23.4851 41.4921C24.5125 41.4701 25.515 41.1902 26.3893 40.6812ZM38.1026 27.4313L23.3484 36.0579V18.6741L38.1026 27.4313ZM138.75 68.1383C138.75 78.636 129.691 87.1755 118.555 87.1755C113.704 87.1668 109.018 85.5136 105.352 82.5178C101.687 79.5221 99.2871 75.3835 98.5905 70.8579H86.5887C85.8921 75.3835 83.4921 79.5221 79.8268 82.5178C76.1614 85.5136 71.4754 87.1668 66.6242 87.1755C61.7726 87.1679 57.0859 85.5151 53.4204 82.5192C49.7548 79.5232 47.3551 75.384 46.6596 70.8579H43.4399C37.8314 70.8579 32.7652 68.6877 29.1185 65.1903V92.6147C29.1185 101.611 36.8851 108.932 46.4288 108.932H46.6596C48.0675 99.7238 56.4688 92.6147 66.6242 92.6147C77.7605 92.6147 86.8195 101.154 86.8195 111.652C86.8195 122.15 77.7605 130.689 66.6242 130.689C61.7726 130.682 57.0859 129.029 53.4204 126.033C49.7548 123.037 47.3551 118.898 46.6596 114.372H46.4288C33.7 114.372 23.3484 104.614 23.3484 92.6147V53.9909C16.8369 52.7296 10.9857 49.3906 6.7814 44.5366C2.57708 39.6826 0.276705 33.6107 0.268066 27.3442C0.268066 12.3483 13.2104 0.148193 29.1185 0.148193C45.0267 0.148193 57.969 12.3483 57.969 27.3442C57.9588 34.508 54.9535 41.3793 49.6047 46.4682C44.2559 51.5572 36.9947 54.4536 29.3955 54.5294C30.0369 57.5967 31.7877 60.359 34.349 62.3449C36.9104 64.3309 40.1235 65.4173 43.4399 65.4187H46.6596C48.0675 56.2101 56.4688 49.1011 66.6242 49.1011C71.4757 49.1087 76.1624 50.7615 79.828 53.7575C83.4935 56.7534 85.8933 60.8926 86.5887 65.4187H98.5905C99.2871 60.8931 101.687 56.7545 105.352 53.7588C109.018 50.763 113.704 49.1098 118.555 49.1011C129.691 49.1011 138.75 57.6406 138.75 68.1383ZM52.1989 111.652C52.1989 119.147 58.673 125.25 66.6242 125.25C74.5754 125.25 81.0494 119.147 81.0494 111.652C81.0494 104.157 74.5754 98.054 66.6242 98.054C58.673 98.054 52.1989 104.157 52.1989 111.652ZM29.1185 49.1011C41.8474 49.1011 52.1989 39.3431 52.1989 27.3442C52.1989 15.3453 41.8474 5.5874 29.1185 5.5874C16.3897 5.5874 6.03816 15.3453 6.03816 27.3442C6.03816 39.3431 16.3897 49.1011 29.1185 49.1011ZM81.0494 68.1383C81.0494 60.6431 74.5754 54.5403 66.6242 54.5403C58.673 54.5403 52.1989 60.6431 52.1989 68.1383C52.1989 75.6335 58.673 81.7363 66.6242 81.7363C74.5754 81.7363 81.0494 75.6335 81.0494 68.1383ZM132.98 68.1383C132.98 60.6431 126.506 54.5403 118.555 54.5403C110.604 54.5403 104.13 60.6431 104.13 68.1383C104.13 75.6335 110.604 81.7363 118.555 81.7363C126.506 81.7363 132.98 75.6335 132.98 68.1383ZM57.969 111.652C57.969 112.373 58.273 113.065 58.814 113.575C59.3551 114.085 60.0889 114.372 60.8541 114.372C61.6192 114.372 62.3531 114.085 62.8941 113.575C63.4352 113.065 63.7391 112.373 63.7391 111.652C63.7391 110.931 63.4352 110.239 62.8941 109.729C62.3531 109.219 61.6192 108.932 60.8541 108.932C60.0889 108.932 59.3551 109.219 58.814 109.729C58.273 110.239 57.969 110.931 57.969 111.652ZM69.5092 111.652C69.5092 112.373 69.8132 113.065 70.3542 113.575C70.8953 114.085 71.6291 114.372 72.3943 114.372C73.1594 114.372 73.8932 114.085 74.4343 113.575C74.9754 113.065 75.2793 112.373 75.2793 111.652C75.2793 110.931 74.9754 110.239 74.4343 109.729C73.8932 109.219 73.1594 108.932 72.3943 108.932C71.6291 108.932 70.8953 109.219 70.3542 109.729C69.8132 110.239 69.5092 110.931 69.5092 111.652ZM138.75 111.652C138.75 122.15 129.691 130.689 118.555 130.689C113.702 130.68 109.015 129.025 105.349 126.027C101.684 123.029 99.2846 118.888 98.5905 114.361C98.5501 114.366 98.5155 114.388 98.4693 114.388L95.5497 114.48H95.4516C94.7075 114.462 93.9996 114.174 93.4759 113.675C92.9522 113.177 92.6531 112.507 92.6412 111.805C92.6292 111.104 92.9054 110.425 93.4119 109.911C93.9185 109.397 94.6162 109.087 95.3592 109.047L98.2789 108.954C98.3828 108.943 98.4809 108.987 98.579 108.992C99.2619 104.454 101.658 100.3 105.327 97.2915C108.996 94.2834 113.692 92.623 118.555 92.6147C129.691 92.6147 138.75 101.154 138.75 111.652ZM132.98 111.652C132.98 104.157 126.506 98.054 118.555 98.054C110.604 98.054 104.13 104.157 104.13 111.652C104.13 119.147 110.604 125.25 118.555 125.25C126.506 125.25 132.98 119.147 132.98 111.652Z" fill="#454545"/>
</svg>
