<svg width="199" height="71" viewBox="0 0 199 71" fill="none" xmlns="http://www.w3.org/2000/svg">
<path d="M14.7739 21.1886L17.5918 17.769L53.3883 17.7528L51.0835 21.172L14.7739 21.1883V21.1886ZM47.2407 29.6003L48.4278 26.181L3.07367 26.2105L0.256226 29.6298L47.2407 29.6003ZM45.9373 38.0422L46.2801 34.6229L25.6497 34.6388L23.6474 38.058L45.9373 38.0422ZM177.522 64.8207C157.674 75.2197 130.556 70.8156 123.307 48.2682C119.022 56.2873 112.026 62.8599 103.69 66.6078C83.9373 75.4879 57.1194 67.7438 53.6702 43.4086C51.1444 20.0832 70.9933 5.66999 82.727 2.03091C101.375 -3.4941 119.766 2.99803 126.126 19.1555L106.095 24.149C103.967 18.5163 92.4005 14.4601 83.5096 20.5738C69.5263 28.7796 69.7845 49.4297 86.6791 52.4959C95.4507 53.5656 101.342 49.4433 105.759 43.1028L84.0083 43.147L90.997 28.8135H123.595C137.714 -9.07002 192.777 -7.4113 198.373 26.6299C200.362 38.729 196.02 55.1288 177.522 64.8207ZM159.432 17.9501C144.361 21.0345 140.605 33.6964 142.932 41.8089C145.407 50.4422 154.996 56.1033 167.163 50.6893C186.662 42.0128 181.551 13.4236 159.432 17.9501Z" fill="#454545"/>
</svg>
