<svg width="104" height="131" viewBox="0 0 104 131" fill="none" xmlns="http://www.w3.org/2000/svg">
<path d="M55.8689 28.3908C48.1234 26.6927 44.2749 31.4419 41.9273 36.3673C39.8307 35.889 40.665 33.2057 41.1946 31.8381C42.5809 28.2498 48.1678 23.4728 52.7328 24.1204C54.6971 24.3988 57.356 26.0892 55.8689 28.3908ZM93.6061 36.6931C93.7283 36.698 93.8518 36.7018 93.9737 36.7066C95.7241 40.1293 97.239 43.7546 99.4469 46.7759C97.968 50.0185 88.2465 52.8881 88.3968 47.0655C90.4987 46.2004 94.1284 46.8891 95.992 45.7841C94.9139 43.0004 93.3588 40.6308 93.6061 36.6931ZM59.8342 36.7824C61.4946 39.6476 62.0352 42.6585 64.3956 44.8244C65.459 45.7994 67.5263 46.9878 66.5016 49.6993C66.2619 50.3387 64.5118 51.7645 63.5015 52.0449C59.8111 53.0704 51.2116 52.2566 54.124 47.9258C57.1758 48.0599 61.2782 49.7916 63.5594 47.706C61.8077 45.0697 58.6843 39.8549 59.8342 36.7824ZM92.2212 65.9065C86.6643 69.2662 80.4682 72.9198 71.3634 72.0723C69.4181 70.4803 68.6764 66.9373 70.5663 64.5975C71.5501 66.1895 70.9319 69.1178 73.6737 69.5583C78.84 70.3903 84.8527 66.5834 88.5688 65.253C90.8733 61.5964 88.3702 60.2514 86.2943 57.8979C82.0444 53.076 76.3439 47.0992 76.5511 39.8804C78.2687 38.7081 78.4172 41.6697 78.6636 42.209C80.8826 47.0976 86.4674 53.3496 90.5434 57.5335C91.5443 58.5638 93.192 59.5526 93.3754 60.2336C93.9038 62.2149 92.0002 64.5886 92.2212 65.9065ZM95.7588 69.3248C93.1725 73.959 89.5136 79.0626 81.9235 79.211C81.7691 77.7143 81.6508 75.437 81.9319 74.536C87.7342 74.011 91.3162 71.2317 95.7588 69.3248ZM59.3964 72.329C64.2374 74.7252 73.1341 74.9829 79.7138 74.8014C80.0667 76.1583 80.0583 77.8347 80.0719 79.4894C71.614 79.8866 61.614 77.9165 59.3964 72.329ZM58.4763 76.7972C61.8237 84.7087 73.3294 83.7978 83.032 83.5793C82.6048 84.6068 81.679 85.8199 80.528 86.2589C77.419 87.4496 68.8435 88.3532 64.5272 86.1954C61.7898 84.8258 60.0308 81.7305 58.5313 79.9162C57.807 79.0399 54.2001 76.8021 58.4763 76.7972ZM84.3397 7.09144C88.9022 10.3397 96.1957 17.1982 98.8041 22.1638C105.694 35.2735 105.205 57.183 100.385 73.1299C96.4833 85.929 88.3497 95.0924 85.4868 96.3519C64.3184 105.665 57.7246 100.764 52.852 98.403C47.4887 95.805 36.0575 85.4433 36.1371 78.7536C42.4332 86.9756 47.6347 94.1569 59.0841 97.7725C67.7468 100.508 81.971 95.8394 86.488 90.4834C99.6284 74.9034 101.582 59.8754 100.916 46.8287C100.626 41.1532 100.619 35.4984 98.5961 31.6803C96.4814 27.6881 89.331 24.1163 85.1453 27.7274C84.3695 23.845 88.6259 21.4441 93.6262 22.8413C90.0607 18.5105 86.3192 13.3064 81.2518 10.615C72.4296 5.92907 57.4955 2.40472 48.1107 6.80894C40.5377 10.3629 30.3015 16.2433 26.8117 23.6951C30.0718 30.8858 25.846 37.4746 25.5762 44.7754C25.4329 48.6601 27.5194 52.0511 27.6793 56.2801C26.5635 58.0126 23.1552 58.226 20.7957 58.1072C20.0015 54.3664 18.6111 50.1615 14.5185 49.7393C8.72734 49.1432 4.49311 53.6545 4.23009 58.3688C3.91859 63.913 8.75388 73.1018 15.6074 72.4639C18.2549 72.2176 18.9053 69.7195 21.7897 69.7452C23.3532 72.6814 19.3782 73.6033 18.9692 75.7034C18.8627 76.246 19.2988 78.366 19.5526 79.3601C20.7975 84.2014 23.5723 90.4671 26.3038 94.1526L28.1587 102.707C27.3862 102.188 22.1595 95.7871 21.4436 96.0528C20.1892 95.062 14.8533 79.8354 14.6732 77.2786C3.26986 75.9905 -4.06826 58.6492 3.34137 48.6399C0.966389 35.9708 4.73906 26.8579 10.4073 24.4814C12.9261 15.0374 21.9401 11.897 30.4332 7.20388C51.3316 -3.50838 74.1136 -0.220636 84.3397 7.09144ZM66.7863 115.593C66.5978 117.563 67.0845 118.208 67.5057 120.466C74.3855 122.49 73.1842 111.578 66.7863 115.593ZM59.157 113.236C56.1926 111.711 51.739 110.052 47.9102 109.363C43.1638 108.51 43.6096 115.457 43.8101 119.602C43.9691 122.884 45.7798 126.356 46.5691 128.535C46.9381 129.554 47.022 130.634 47.9468 130.836C49.5812 131.195 54.9726 129.165 56.509 128.376C59.758 126.709 62.279 124.061 65.0386 122.283C65.0744 121.418 65.1091 120.553 65.1459 119.688C63.4868 118.91 61.5696 118.358 59.134 118.257C60.7863 117.475 63.2168 117.486 64.722 116.555C64.7366 116.209 64.7521 115.863 64.7648 115.519C62.0163 115.321 60.9686 114.168 59.157 113.236ZM88.9694 117.439C88.8361 114.827 88.1075 109.455 86.3923 108.515C82.7922 106.537 76.3924 112.509 73.6813 113.42C73.9765 114.219 74.463 114.852 74.5006 115.873C76.1042 115.502 78.0564 115.756 79.4459 116.399C77.8391 116.568 76.0573 116.557 74.9942 117.278C74.6047 118.338 75.0898 119.782 74.8306 121.254C78.6444 122.267 83.0011 122.806 87.8228 122.939C88.7606 121.792 89.0799 119.606 88.9694 117.439ZM17.8605 64.4359C16.1188 63.5002 15.7044 59.3787 13.6593 59.2617C10.7372 59.0947 11.2703 64.6082 11.2816 67.8325C9.27043 66.1138 8.91668 60.8215 10.3943 58.1036C8.71027 57.3252 7.95834 58.9623 7.02411 59.5391C8.2246 51.3303 19.7821 55.7317 17.8605 64.4359Z" fill="#454545"/>
</svg>
