<svg width="140" height="175" viewBox="0 0 140 175" fill="none" xmlns="http://www.w3.org/2000/svg">
<path d="M66.9516 0.336914C66.9516 16.0018 80.5921 28.7296 97.0715 28.7296H109.396V39.8256C109.396 55.4905 122.829 68.153 139.447 68.2182V5.81964C139.447 4.36553 138.834 2.97098 137.744 1.94277C136.653 0.914557 135.173 0.336914 133.631 0.336914H66.9516ZM33.9928 31.6668C34.0328 39.168 37.2117 46.3513 42.8387 51.6556C48.4656 56.9598 56.0859 59.9564 64.0435 59.9942H76.5069V71.2207C76.5469 78.7219 79.7258 85.9052 85.3527 91.2095C90.9797 96.5137 98.5999 99.5104 106.558 99.5481V37.0842C106.538 35.6532 105.926 34.286 104.852 33.2741C103.779 32.2621 102.329 31.6854 100.811 31.6668H33.9928ZM0.964783 62.9966C0.964783 78.6615 14.4668 91.324 31.0847 91.324H43.4096V102.551C43.4788 118.15 56.9116 130.878 73.4603 130.878V68.4141C73.4603 66.9599 72.8475 65.5654 71.7567 64.5372C70.666 63.509 69.1866 62.9313 67.644 62.9313L0.964783 62.9966Z" fill="#454545"/>
<path d="M45.3638 168.772C44.0384 168.772 42.8158 168.53 41.6958 168.044C40.5944 167.54 39.6891 166.831 38.9798 165.916L41.4998 162.892C42.0411 163.602 42.6104 164.143 43.2078 164.516C43.8051 164.871 44.4491 165.048 45.1398 165.048C46.9878 165.048 47.9118 163.966 47.9118 161.8V152.476H41.0238V148.836H52.4198V161.548C52.4198 163.975 51.8224 165.786 50.6278 166.98C49.4331 168.175 47.6784 168.772 45.3638 168.772ZM56.9002 168.436V148.836H61.4362V168.436H56.9002ZM66.0877 168.436V148.836H74.5717C76.3264 148.836 77.8384 149.126 79.1077 149.704C80.377 150.264 81.357 151.076 82.0477 152.14C82.7384 153.204 83.0837 154.474 83.0837 155.948C83.0837 157.404 82.7384 158.664 82.0477 159.728C81.357 160.774 80.377 161.576 79.1077 162.136C77.8384 162.696 76.3264 162.976 74.5717 162.976H68.6077L70.6237 160.988V168.436H66.0877ZM78.5477 168.436L73.6477 161.324H78.4917L83.4477 168.436H78.5477ZM70.6237 161.492L68.6077 159.364H74.3197C75.7197 159.364 76.765 159.066 77.4557 158.468C78.1464 157.852 78.4917 157.012 78.4917 155.948C78.4917 154.866 78.1464 154.026 77.4557 153.428C76.765 152.831 75.7197 152.532 74.3197 152.532H68.6077L70.6237 150.376V161.492ZM84.1016 168.436L92.8376 148.836H97.3176L106.082 168.436H101.322L94.1536 151.132H95.9456L88.7496 168.436H84.1016ZM88.4696 164.236L89.6736 160.792H99.7536L100.986 164.236H88.4696Z" fill="#454545"/>
</svg>
