<svg width="157" height="144" viewBox="0 0 157 144" fill="none" xmlns="http://www.w3.org/2000/svg">
<path d="M66.7541 86.0583L66.8076 86.0998L60.3177 100.927C54.0963 97.1574 49.3642 91.5502 46.856 84.9759L63.5895 82.2859L63.6138 82.309C64.1236 82.2239 64.6482 82.2707 65.1322 82.4445C65.6161 82.6182 66.0415 82.9125 66.3632 83.2962C66.685 83.6798 66.8911 84.1386 66.9599 84.624C67.0287 85.1094 66.9576 85.6034 66.7541 86.0537V86.0583ZM61.3548 72.9816C61.8541 72.8513 62.3067 72.5953 62.6643 72.2409C63.022 71.8865 63.2713 71.4469 63.3857 70.969C63.5002 70.4911 63.4754 69.9927 63.3141 69.5271C63.1527 69.0615 62.8609 68.6459 62.4697 68.3248L62.494 68.2511L49.7626 57.4775C45.8812 63.457 44.2113 70.4877 45.0157 77.4633L61.3207 73.023L61.3548 72.9816ZM68.7843 60.8169C70.6343 62.0882 73.2196 60.8906 73.3218 58.7303L73.3997 58.7073L74.3588 42.609C66.9777 43.4258 60.0963 46.5513 54.8065 51.4895L68.7551 60.8169H68.7843ZM73.7259 77.7075L78.4193 79.8447L83.1126 77.7075L84.2762 72.9355L81.0288 69.0987H75.8097L72.5623 72.9355L73.7259 77.7075ZM83.4631 58.6843C83.4818 59.1748 83.6419 59.6512 83.9262 60.0618C84.2105 60.4724 84.6082 60.8015 85.0761 61.0136C85.544 61.2257 86.0643 61.3126 86.5807 61.2649C87.0971 61.2173 87.5898 61.0368 88.0056 60.7432L88.0494 60.7662L101.896 51.4849C96.6308 46.5882 89.8033 43.4743 82.4748 42.6274L83.4339 58.6797L83.4631 58.6843ZM154.058 95.3626L116.584 139.457C114.603 141.76 111.638 143.105 108.498 143.105L48.375 143.128C45.2348 143.128 42.2406 141.783 40.259 139.457L2.78531 95.3626C1.82037 94.2205 1.13912 92.8879 0.791918 91.4631C0.444718 90.0384 0.440453 88.558 0.779438 87.1315L14.173 32.1485C14.5126 30.7172 15.1942 29.3785 16.1656 28.2352C17.137 27.0918 18.3723 26.1741 19.7768 25.5526L73.9158 1.06199C75.3227 0.434203 76.8589 0.108643 78.4144 0.108643C79.9699 0.108643 81.5061 0.434203 82.913 1.06199L137.076 25.5296C138.472 26.1629 139.7 27.0841 140.67 28.2256C141.64 29.3671 142.327 30.6997 142.68 32.1255L156.074 87.1361C156.409 88.5628 156.403 90.0424 156.056 91.4666C155.709 92.8908 155.03 94.2235 154.068 95.3672L154.058 95.3626ZM132.709 82.7235C132.432 82.6728 132.052 82.5531 131.774 82.5024C130.63 82.3136 129.715 82.3596 128.654 82.2859C126.399 82.0464 124.525 81.8806 122.85 81.3785C122.164 81.139 121.682 80.3698 121.453 80.0335L120.134 79.6697C120.844 74.8972 120.611 70.0414 119.447 65.3493C118.306 60.6133 116.253 56.1166 113.391 52.0837C113.722 51.7935 114.35 51.2731 114.525 51.1026C114.578 50.5499 114.525 49.9787 115.133 49.3753C116.424 48.2192 118.03 47.2888 119.949 46.1557C120.888 45.6536 121.726 45.322 122.66 44.6679C122.87 44.5251 123.147 44.2856 123.376 44.1152C124.919 42.9683 125.28 40.9278 124.16 39.6058C123.04 38.2839 120.888 38.1687 119.345 39.3156C119.116 39.4861 118.814 39.7025 118.605 39.8684C117.748 40.5869 117.217 41.2824 116.477 42.0286C114.88 43.5625 113.537 44.8337 112.095 45.7457C111.487 46.1096 110.542 45.9853 110.143 45.9622L108.897 46.8051C101.809 39.7465 92.247 35.3713 81.9977 34.4977L81.9198 33.1296C81.4914 32.7473 80.985 32.4111 80.8536 31.5958C80.7026 29.9422 80.9558 28.1689 81.2382 26.0316C81.3599 25.0229 81.6131 24.2076 81.6666 23.1068V22.2408C81.6666 20.3661 80.1914 18.8323 78.4193 18.8323C76.6227 18.8323 75.1719 20.3661 75.1719 22.2408V23.1068C75.2254 24.2076 75.4786 25.0229 75.6003 26.0316C75.8778 28.1689 76.1115 29.9422 75.985 31.5958C75.7872 32.2053 75.4188 32.7528 74.9187 33.1803L74.8408 34.4746C64.5263 35.2537 54.8889 39.6418 47.8103 46.7821C47.4062 46.5196 47.0264 46.2524 46.6418 45.9899C46.0624 46.0636 45.4782 46.2294 44.7187 45.824C43.2727 44.8844 41.929 43.6131 40.3321 42.0793C39.5969 41.3377 39.0662 40.6422 38.2045 39.9467C37.9951 39.7762 37.6982 39.5598 37.4888 39.3939C36.8406 38.9148 36.0553 38.6308 35.2346 38.5787C34.7435 38.5549 34.2534 38.6405 33.8035 38.8285C33.3537 39.0165 32.9568 39.3017 32.6445 39.6611C31.5296 41.0061 31.885 43.0189 33.4284 44.1935L33.4819 44.2165L34.1684 44.7186C35.0788 45.368 35.9162 45.6997 36.8559 46.2064C38.7839 47.3625 40.3808 48.2929 41.6709 49.426C42.1529 49.9281 42.2552 50.8124 42.3087 51.1994L43.3457 52.0607C37.6171 60.2063 35.26 70.0627 36.7244 79.748L35.3807 80.1118C35.0253 80.5678 34.5189 81.2357 33.9834 81.4568C32.3086 81.9589 30.4342 82.1247 28.18 82.3412C27.1138 82.4379 26.1985 82.3919 25.0592 82.5807C24.8061 82.6314 24.475 82.7281 24.1975 82.7696L24.178 82.7926H24.1245C22.2208 83.2302 20.9745 84.9068 21.3834 86.5373C21.7583 88.1633 23.6376 89.172 25.5656 88.7667H25.6191L25.6727 88.7437L26.5101 88.5779C27.625 88.2877 28.438 87.8777 29.4264 87.5231C31.554 86.8045 33.3602 86.1781 35.0788 85.9386C35.7945 85.8879 36.5784 86.3669 36.9289 86.565L38.3505 86.3439C41.5181 95.6162 48.1676 103.469 57.0412 108.416L56.4569 109.761C56.6858 110.291 56.9194 110.982 56.7344 111.489C56.1259 113.05 55.0353 114.681 53.8181 116.482C53.2096 117.315 52.5961 117.969 52.0654 118.927C51.9437 119.167 51.7879 119.531 51.6613 119.77C50.8239 121.447 51.4325 123.395 53.0294 124.137C54.6507 124.855 56.6517 124.086 57.5134 122.387C57.6449 122.147 57.8201 121.834 57.9224 121.594C58.3752 120.613 58.531 119.747 58.8572 118.789C59.6946 116.749 60.1766 114.612 61.3694 113.267C61.7004 112.912 62.2068 112.764 62.7667 112.645L63.5018 111.373C73.1267 114.873 83.7767 114.898 93.4195 111.443L94.1059 112.622C94.6658 112.787 95.2744 112.884 95.7564 113.58C96.6474 114.994 97.2511 116.698 97.9911 118.739C98.3173 119.697 98.4731 120.563 98.9259 121.544C99.0281 121.76 99.2034 122.096 99.3348 122.336C100.192 124.036 102.198 124.805 103.794 124.063C105.416 123.345 106.029 121.396 105.192 119.697C105.045 119.427 104.902 119.155 104.763 118.881C104.233 117.923 103.619 117.278 103.035 116.436C101.793 114.635 100.776 113.124 100.148 111.567C99.8947 110.775 100.192 110.296 100.401 109.766C100.27 109.623 100.016 108.877 99.8704 108.518C108.768 103.519 115.418 95.6067 118.561 86.2794C118.965 86.3485 119.695 86.4683 119.949 86.5189C120.435 86.2057 120.864 85.8188 121.755 85.8695C123.473 86.109 125.28 86.7354 127.407 87.454C128.396 87.8178 129.204 88.2232 130.324 88.5088C130.552 88.5825 130.883 88.6331 131.161 88.6746L131.215 88.6976H131.268C133.196 89.1075 135.07 88.1034 135.45 86.4683C135.859 84.8331 134.613 83.1565 132.709 82.7281V82.7235ZM106.969 57.4821L94.3153 68.2051V68.2557C93.9272 68.5784 93.6382 68.994 93.4788 69.459C93.3195 69.9239 93.2956 70.4209 93.4097 70.8976C93.5239 71.3744 93.7718 71.8131 94.1274 72.1677C94.4829 72.5223 94.933 72.7796 95.4302 72.9125L95.4546 72.9632L111.857 77.4219C112.212 73.9949 111.988 70.5127 111.151 67.1549C110.331 63.7349 108.916 60.4677 106.964 57.4867L106.969 57.4821ZM80.9315 90.2038C80.6796 89.7583 80.3016 89.388 79.8399 89.1342C79.3781 88.8803 78.8508 88.7531 78.317 88.7667C77.8149 88.7878 77.327 88.9312 76.9005 89.183C76.4741 89.4347 76.1235 89.7863 75.8827 90.2038L67.645 104.285C74.6412 106.546 82.2509 106.546 89.2471 104.285L81.0045 90.2038H80.9315ZM93.176 82.2629C92.6685 82.1777 92.1461 82.2234 91.6637 82.3954C91.1814 82.5673 90.7569 82.8591 90.4351 83.24C90.1132 83.6209 89.9058 84.0768 89.8346 84.5598C89.7635 85.0428 89.8313 85.535 90.0309 85.9846V86.0076L96.5743 100.973C102.844 97.1987 107.601 91.5503 110.09 84.9252L93.2004 82.2168L93.176 82.2629Z" fill="#454545"/>
</svg>
