<svg width="140" height="182" viewBox="0 0 140 182" fill="none" xmlns="http://www.w3.org/2000/svg">
<path fill-rule="evenodd" clip-rule="evenodd" d="M51.7374 0.148438C48.0646 0.149224 44.5426 1.52532 41.9462 3.97399C39.3497 6.42267 37.8915 9.74334 37.8923 13.2055C37.8932 16.6677 39.353 19.9877 41.9506 22.4353C44.5483 24.8828 48.0709 26.2574 51.7437 26.2566H65.5919V13.2025C65.5886 9.74134 64.1285 6.4228 61.5322 3.97537C58.9359 1.52793 55.4155 0.15158 51.7437 0.148438H51.7374ZM51.7374 34.9614H14.813C11.1402 34.9614 7.61788 36.3367 5.02083 38.7848C2.42379 41.2329 0.964783 44.5533 0.964783 48.0155C0.964783 51.4776 2.42379 54.798 5.02083 57.2461C7.61788 59.6942 11.1402 61.0696 14.813 61.0696H51.7374C55.4102 61.0696 58.9325 59.6942 61.5296 57.2461C64.1266 54.798 65.5856 51.4776 65.5856 48.0155C65.5856 44.5533 64.1266 41.2329 61.5296 38.7848C58.9325 36.3367 55.4102 34.9614 51.7374 34.9614ZM139.447 48.0095C139.447 44.5474 137.988 41.227 135.391 38.7789C132.794 36.3308 129.272 34.9554 125.599 34.9554C121.926 34.9554 118.404 36.3308 115.807 38.7789C113.21 41.227 111.751 44.5474 111.751 48.0095V61.0636H125.599C129.272 61.0636 132.794 59.6883 135.391 57.2402C137.988 54.792 139.447 51.4717 139.447 48.0095ZM102.516 48.0095V13.2025C102.516 9.74038 101.057 6.42001 98.4603 3.9719C95.8633 1.52378 92.3409 0.148438 88.6681 0.148438C84.9953 0.148438 81.473 1.52378 78.876 3.9719C76.2789 6.42001 74.8199 9.74038 74.8199 13.2025V48.0095C74.8199 51.4717 76.2789 54.792 78.876 57.2402C81.473 59.6883 84.9953 61.0636 88.6681 61.0636C92.3409 61.0636 95.8633 59.6883 98.4603 57.2402C101.057 54.792 102.516 51.4717 102.516 48.0095ZM88.6681 130.689C92.3409 130.689 95.8633 129.314 98.4603 126.866C101.057 124.418 102.516 121.098 102.516 117.635C102.516 114.173 101.057 110.853 98.4603 108.405C95.8633 105.957 92.3409 104.581 88.6681 104.581H74.8199V117.635C74.8216 121.097 76.2811 124.416 78.8778 126.864C81.4745 129.312 84.9959 130.688 88.6681 130.689ZM88.6681 95.8706H125.599C129.272 95.8706 132.794 94.4953 135.391 92.0471C137.988 89.599 139.447 86.2787 139.447 82.8165C139.447 79.3543 137.988 76.034 135.391 73.5859C132.794 71.1377 129.272 69.7624 125.599 69.7624H88.6744C85.0016 69.7616 81.479 71.1362 78.8813 73.5838C76.2837 76.0313 74.8239 79.3514 74.823 82.8135C74.8222 86.2757 76.2804 89.5964 78.8769 92.0451C81.4733 94.4937 84.9953 95.8698 88.6681 95.8706ZM0.964783 82.8224C0.964783 86.2846 2.42379 89.605 5.02083 92.0531C7.61788 94.5012 11.1402 95.8765 14.813 95.8765C18.4858 95.8765 22.0081 94.5012 24.6052 92.0531C27.2022 89.605 28.6612 86.2846 28.6612 82.8224V69.7683H14.813C11.1402 69.7683 7.61788 71.1437 5.02083 73.5918C2.42379 76.0399 0.964783 79.3603 0.964783 82.8224ZM37.8955 82.8224V117.629C37.8947 121.092 39.3529 124.412 41.9493 126.861C44.5458 129.31 48.0678 130.686 51.7406 130.686C55.4133 130.687 58.936 129.313 61.5337 126.865C64.1313 124.418 65.5911 121.098 65.5919 117.635V82.8284C65.5928 79.3662 64.1346 76.0455 61.5381 73.5969C58.9417 71.1482 55.4196 69.7721 51.7469 69.7713C48.0741 69.7705 44.5514 71.1451 41.9538 73.5927C39.3561 76.0402 37.8963 79.3603 37.8955 82.8224Z" fill="#454545"/>
<path d="M32.2176 176.263C30.6496 176.263 29.1469 176.057 27.7096 175.647C26.2722 175.217 25.1149 174.667 24.2376 173.995L25.7776 170.579C26.6176 171.176 27.6069 171.671 28.7456 172.063C29.9029 172.436 31.0696 172.623 32.2456 172.623C33.1416 172.623 33.8602 172.539 34.4016 172.371C34.9616 172.184 35.3722 171.932 35.6336 171.615C35.8949 171.297 36.0256 170.933 36.0256 170.523C36.0256 170 35.8202 169.589 35.4096 169.291C34.9989 168.973 34.4576 168.721 33.7856 168.535C33.1136 168.329 32.3669 168.143 31.5456 167.975C30.7429 167.788 29.9309 167.564 29.1096 167.303C28.3069 167.041 27.5696 166.705 26.8976 166.295C26.2256 165.884 25.6749 165.343 25.2456 164.671C24.8349 163.999 24.6296 163.14 24.6296 162.095C24.6296 160.975 24.9282 159.957 25.5256 159.043C26.1416 158.109 27.0562 157.372 28.2696 156.831C29.5016 156.271 31.0416 155.991 32.8896 155.991C34.1216 155.991 35.3349 156.14 36.5296 156.439C37.7242 156.719 38.7789 157.148 39.6936 157.727L38.2936 161.171C37.3789 160.648 36.4642 160.265 35.5496 160.023C34.6349 159.761 33.7389 159.631 32.8616 159.631C31.9842 159.631 31.2656 159.733 30.7056 159.939C30.1456 160.144 29.7442 160.415 29.5016 160.751C29.2589 161.068 29.1376 161.441 29.1376 161.871C29.1376 162.375 29.3429 162.785 29.7536 163.103C30.1642 163.401 30.7056 163.644 31.3776 163.831C32.0496 164.017 32.7869 164.204 33.5896 164.391C34.4109 164.577 35.2229 164.792 36.0256 165.035C36.8469 165.277 37.5936 165.604 38.2656 166.015C38.9376 166.425 39.4789 166.967 39.8896 167.639C40.3189 168.311 40.5336 169.16 40.5336 170.187C40.5336 171.288 40.2256 172.296 39.6096 173.211C38.9936 174.125 38.0696 174.863 36.8376 175.423C35.6242 175.983 34.0842 176.263 32.2176 176.263ZM43.633 175.927V156.327H48.169V172.231H57.997V175.927H43.633ZM58.0648 175.927L66.8008 156.327H71.2808L80.0448 175.927H75.2848L68.1168 158.623H69.9088L62.7128 175.927H58.0648ZM62.4328 171.727L63.6368 168.283H73.7168L74.9488 171.727H62.4328ZM91.1849 176.263C89.6729 176.263 88.2636 176.02 86.9569 175.535C85.6689 175.031 84.5489 174.321 83.5969 173.407C82.6449 172.492 81.8982 171.419 81.3569 170.187C80.8342 168.955 80.5729 167.601 80.5729 166.127C80.5729 164.652 80.8342 163.299 81.3569 162.067C81.8982 160.835 82.6449 159.761 83.5969 158.847C84.5676 157.932 85.6969 157.232 86.9849 156.747C88.2729 156.243 89.6822 155.991 91.2129 155.991C92.9116 155.991 94.4422 156.289 95.8049 156.887C97.1862 157.465 98.3436 158.324 99.2769 159.463L96.3649 162.151C95.6929 161.385 94.9462 160.816 94.1249 160.443C93.3036 160.051 92.4076 159.855 91.4369 159.855C90.5222 159.855 89.6822 160.004 88.9169 160.303C88.1516 160.601 87.4889 161.031 86.9289 161.591C86.3689 162.151 85.9302 162.813 85.6129 163.579C85.3142 164.344 85.1649 165.193 85.1649 166.127C85.1649 167.06 85.3142 167.909 85.6129 168.675C85.9302 169.44 86.3689 170.103 86.9289 170.663C87.4889 171.223 88.1516 171.652 88.9169 171.951C89.6822 172.249 90.5222 172.399 91.4369 172.399C92.4076 172.399 93.3036 172.212 94.1249 171.839C94.9462 171.447 95.6929 170.859 96.3649 170.075L99.2769 172.763C98.3436 173.901 97.1862 174.769 95.8049 175.367C94.4422 175.964 92.9022 176.263 91.1849 176.263ZM106.4 171.447L106.148 166.211L115.528 156.327H120.568L112.112 165.427L109.592 168.115L106.4 171.447ZM102.34 175.927V156.327H106.848V175.927H102.34ZM115.752 175.927L108.78 167.387L111.748 164.167L121.044 175.927H115.752Z" fill="#454545"/>
</svg>
