<svg width="193" height="173" viewBox="0 0 193 173" fill="none" xmlns="http://www.w3.org/2000/svg">
<path d="M74.8538 23.3947L118.185 44.1404V85.6772L74.8538 64.9068V23.3947ZM122.941 44.1404V85.6772L166.294 64.9068V23.3947L122.941 44.1404ZM26.793 0.220215V41.7364L70.1238 62.5027V20.9866L26.793 0.220215ZM74.8538 110.951L118.185 131.721V90.2255L74.8538 69.4592V110.951Z" fill="#454545"/>
<path d="M9.10308 167.359V151.455H2.83108V147.759H19.9111V151.455H13.6391V167.359H9.10308ZM26.5237 155.655H35.9597V159.183H26.5237V155.655ZM26.8597 163.719H37.5277V167.359H22.3517V147.759H37.1637V151.399H26.8597V163.719ZM41.1368 167.359V147.759H49.6208C51.3755 147.759 52.8875 148.049 54.1568 148.627C55.4262 149.187 56.4062 149.999 57.0968 151.063C57.7875 152.127 58.1328 153.397 58.1328 154.871C58.1328 156.327 57.7875 157.587 57.0968 158.651C56.4062 159.697 55.4262 160.499 54.1568 161.059C52.8875 161.619 51.3755 161.899 49.6208 161.899H43.6568L45.6728 159.911V167.359H41.1368ZM53.5968 167.359L48.6968 160.247H53.5408L58.4968 167.359H53.5968ZM45.6728 160.415L43.6568 158.287H49.3688C50.7688 158.287 51.8142 157.989 52.5048 157.391C53.1955 156.775 53.5408 155.935 53.5408 154.871C53.5408 153.789 53.1955 152.949 52.5048 152.351C51.8142 151.754 50.7688 151.455 49.3688 151.455H43.6568L45.6728 149.299V160.415ZM61.7267 167.359V147.759H70.2107C71.9653 147.759 73.4773 148.049 74.7467 148.627C76.016 149.187 76.996 149.999 77.6867 151.063C78.3773 152.127 78.7227 153.397 78.7227 154.871C78.7227 156.327 78.3773 157.587 77.6867 158.651C76.996 159.697 76.016 160.499 74.7467 161.059C73.4773 161.619 71.9653 161.899 70.2107 161.899H64.2467L66.2627 159.911V167.359H61.7267ZM74.1867 167.359L69.2867 160.247H74.1307L79.0867 167.359H74.1867ZM66.2627 160.415L64.2467 158.287H69.9587C71.3587 158.287 72.404 157.989 73.0947 157.391C73.7853 156.775 74.1307 155.935 74.1307 154.871C74.1307 153.789 73.7853 152.949 73.0947 152.351C72.404 151.754 71.3587 151.455 69.9587 151.455H64.2467L66.2627 149.299V160.415ZM79.7405 167.359L88.4765 147.759H92.9565L101.721 167.359H96.9605L89.7925 150.055H91.5845L84.3885 167.359H79.7405ZM84.1085 163.159L85.3125 159.715H95.3925L96.6245 163.159H84.1085ZM107.954 156.579H117.362V160.219H107.954V156.579ZM108.29 167.359H103.754V147.759H118.566V151.399H108.29V167.359ZM130.965 167.695C129.416 167.695 127.979 167.443 126.653 166.939C125.347 166.435 124.208 165.726 123.237 164.811C122.285 163.897 121.539 162.823 120.997 161.591C120.475 160.359 120.213 159.015 120.213 157.559C120.213 156.103 120.475 154.759 120.997 153.527C121.539 152.295 122.295 151.222 123.265 150.307C124.236 149.393 125.375 148.683 126.681 148.179C127.988 147.675 129.407 147.423 130.937 147.423C132.487 147.423 133.905 147.675 135.193 148.179C136.5 148.683 137.629 149.393 138.581 150.307C139.552 151.222 140.308 152.295 140.849 153.527C141.391 154.741 141.661 156.085 141.661 157.559C141.661 159.015 141.391 160.369 140.849 161.619C140.308 162.851 139.552 163.925 138.581 164.839C137.629 165.735 136.5 166.435 135.193 166.939C133.905 167.443 132.496 167.695 130.965 167.695ZM130.937 163.831C131.815 163.831 132.617 163.682 133.345 163.383C134.092 163.085 134.745 162.655 135.305 162.095C135.865 161.535 136.295 160.873 136.593 160.107C136.911 159.342 137.069 158.493 137.069 157.559C137.069 156.626 136.911 155.777 136.593 155.011C136.295 154.246 135.865 153.583 135.305 153.023C134.764 152.463 134.12 152.034 133.373 151.735C132.627 151.437 131.815 151.287 130.937 151.287C130.06 151.287 129.248 151.437 128.501 151.735C127.773 152.034 127.129 152.463 126.569 153.023C126.009 153.583 125.571 154.246 125.253 155.011C124.955 155.777 124.805 156.626 124.805 157.559C124.805 158.474 124.955 159.323 125.253 160.107C125.571 160.873 126 161.535 126.541 162.095C127.101 162.655 127.755 163.085 128.501 163.383C129.248 163.682 130.06 163.831 130.937 163.831ZM145.07 167.359V147.759H153.554C155.309 147.759 156.821 148.049 158.09 148.627C159.36 149.187 160.34 149.999 161.03 151.063C161.721 152.127 162.066 153.397 162.066 154.871C162.066 156.327 161.721 157.587 161.03 158.651C160.34 159.697 159.36 160.499 158.09 161.059C156.821 161.619 155.309 161.899 153.554 161.899H147.59L149.606 159.911V167.359H145.07ZM157.53 167.359L152.63 160.247H157.474L162.43 167.359H157.53ZM149.606 160.415L147.59 158.287H153.302C154.702 158.287 155.748 157.989 156.438 157.391C157.129 156.775 157.474 155.935 157.474 154.871C157.474 153.789 157.129 152.949 156.438 152.351C155.748 151.754 154.702 151.455 153.302 151.455H147.59L149.606 149.299V160.415ZM165.66 167.359V147.759H169.412L177.756 161.591H175.768L183.972 147.759H187.696L187.752 167.359H183.496L183.468 154.283H184.252L177.7 165.287H175.656L168.964 154.283H169.916V167.359H165.66Z" fill="#454545"/>
</svg>
