<svg width="142" height="132" viewBox="0 0 142 132" fill="none" xmlns="http://www.w3.org/2000/svg">
<path d="M0.959106 0.108398H141.041V131.609H0.959106V0.108398Z" fill="url(#paint0_linear_47_8)"/>
<path d="M71 39.2299C75.0553 39.2299 78.3543 42.3269 78.3543 46.1337C78.3543 49.9406 75.0553 53.0375 71 53.0375C66.9447 53.0375 63.6457 49.9406 63.6457 46.1337C63.6457 42.3269 66.9447 39.2299 71 39.2299ZM71 56.325C76.9863 56.325 81.8563 51.7533 81.8563 46.1337C81.8563 40.5141 76.9863 35.9424 71 35.9424C65.0137 35.9424 60.1437 40.5141 60.1437 46.1337C60.1437 51.7533 65.0137 56.325 71 56.325ZM49.9877 43.627L51.9193 43.7307C52.7089 43.7698 53.5352 43.2376 53.7262 42.4532C54.1684 40.6173 54.9423 38.866 56.0145 37.2754C56.2359 36.9466 56.3259 36.5548 56.2686 36.1695C56.2113 35.7843 56.0104 35.4307 55.7015 35.1714L54.2548 33.9586L58.032 30.4142L59.3207 31.7703C59.5966 32.0601 59.9729 32.2488 60.3829 32.3029C60.7928 32.3571 61.21 32.2732 61.5604 32.0662C63.2559 31.0619 65.1219 30.3371 67.0777 29.9231C67.4816 29.8371 67.84 29.6194 68.089 29.3088C68.3381 28.9981 68.4618 28.6146 68.438 28.2265L68.3297 26.4086H73.6703L73.562 28.2301C73.5386 28.6181 73.6624 29.0014 73.9114 29.3119C74.1605 29.6224 74.5186 29.84 74.9223 29.9262C76.8768 30.3403 78.7413 31.0659 80.4347 32.0713C80.7857 32.278 81.2032 32.3615 81.6134 32.307C82.0236 32.2524 82.4 32.0634 82.676 31.7734L83.968 30.4142L87.7453 33.9586L86.3023 35.1683C85.9935 35.4276 85.7925 35.7812 85.7351 36.1664C85.6777 36.5516 85.7676 36.9434 85.9888 37.2723C87.0608 38.8634 87.8345 40.6152 88.276 42.4517C88.4665 43.2355 89.2752 43.7698 90.0829 43.7307L92.0123 43.627V48.6404L90.0845 48.5367C89.2752 48.4976 88.4681 49.0319 88.2771 49.8173C87.8368 51.6549 87.0639 53.408 85.992 55.0003C85.7708 55.3291 85.6808 55.721 85.7382 56.1062C85.7956 56.4914 85.9967 56.845 86.3056 57.1043L87.7447 58.3088L83.9696 61.8547L82.6936 60.5099C82.4173 60.2194 82.0403 60.0303 81.6296 59.9761C81.2188 59.922 80.8009 60.0063 80.4501 60.2141C78.7521 61.2225 76.8824 61.9498 74.9223 62.3643C74.5184 62.4506 74.16 62.6685 73.911 62.9793C73.662 63.2901 73.5383 63.6737 73.562 64.062L73.6703 65.8588H68.3297L68.438 64.0589C68.4614 63.6709 68.3376 63.2876 68.0886 62.9771C67.8396 62.6666 67.4814 62.449 67.0777 62.3628C65.1189 61.9466 63.2504 61.2187 61.5532 60.2105C61.203 60.0019 60.7852 59.9171 60.3745 59.9714C59.9638 60.0257 59.5871 60.2155 59.3119 60.5069L58.0304 61.8547L54.2548 58.3088L55.6906 57.1074C55.9993 56.848 56.2003 56.4945 56.258 56.1094C56.3157 55.7244 56.2263 55.3325 56.0058 55.0033C54.9312 53.4111 54.1576 51.6567 53.7191 49.8173C53.5303 49.0313 52.7232 48.494 51.9122 48.5367L49.9877 48.6404V43.627ZM48.3363 52.0215L50.681 51.8966C51.0863 53.1609 51.6254 54.3839 52.2903 55.5473L50.5377 57.0139C50.3599 57.1632 50.2164 57.345 50.1158 57.5481C50.0152 57.7512 49.9598 57.9714 49.9527 58.1953C49.9407 58.6474 50.1262 59.085 50.466 59.404L56.866 65.4099C57.2052 65.7304 57.6693 65.9184 58.153 65.8902C58.3913 65.8839 58.6257 65.832 58.8419 65.7376C59.058 65.6431 59.2513 65.5082 59.4099 65.341L60.9721 63.6973C62.2116 64.3224 63.5143 64.83 64.861 65.2126L64.7281 67.4091C64.7141 67.6325 64.749 67.8562 64.8305 68.0665C64.912 68.2767 65.0385 68.4691 65.2021 68.6318C65.3658 68.7945 65.5631 68.9241 65.7821 69.0126C66.001 69.1011 66.2369 69.1466 66.4753 69.1464H75.5248C75.763 69.1462 75.9987 69.1005 76.2175 69.0119C76.4362 68.9232 76.6334 68.7937 76.797 68.631C76.9606 68.4684 77.087 68.2762 77.1687 68.0661C77.2504 67.8559 77.2855 67.6324 77.272 67.4091L77.139 65.2147C78.4873 64.8335 79.7914 64.3261 81.0317 63.7004L82.5901 65.341C82.7489 65.5079 82.9423 65.6427 83.1584 65.7371C83.3745 65.8315 83.6088 65.8836 83.847 65.8902C84.2957 65.923 84.7964 65.7309 85.134 65.4099L91.534 59.404C91.8738 59.085 92.0593 58.6479 92.0473 58.1958C92.0405 57.9721 91.9852 57.7519 91.8846 57.549C91.784 57.346 91.6403 57.1644 91.4624 57.0154L89.7059 55.5442C90.3704 54.3819 90.9095 53.1601 91.3152 51.8971L93.6637 52.0215C94.1452 52.043 94.6158 51.8869 94.966 51.5761C95.1392 51.4224 95.2772 51.2372 95.3715 51.0318C95.4657 50.8263 95.5144 50.605 95.5143 50.3813V41.8877C95.5144 41.664 95.4657 41.4426 95.3715 41.2372C95.2772 41.0317 95.1392 40.8465 94.966 40.6929C94.7933 40.5384 94.5885 40.4191 94.3644 40.3422C94.1404 40.2653 93.9018 40.2326 93.6637 40.246L91.3119 40.3723C90.9064 39.1103 90.3675 37.8896 89.7031 36.7283L91.4624 35.2541C91.6403 35.105 91.784 34.9235 91.8846 34.7205C91.9852 34.5175 92.0405 34.2974 92.0473 34.0736C92.0534 33.8501 92.0111 33.6278 91.9228 33.4201C91.8346 33.2124 91.7023 33.0237 91.534 32.8655L85.134 26.8591C84.9674 26.6988 84.7666 26.5732 84.5449 26.4905C84.3232 26.4078 84.0854 26.3697 83.847 26.3788C83.6086 26.3846 83.374 26.4364 83.1578 26.531C82.9415 26.6255 82.7483 26.7608 82.5901 26.9284L81.0159 28.585C79.7802 27.9622 78.4815 27.4567 77.139 27.0758L77.272 24.8583C77.286 24.6351 77.2511 24.4117 77.1695 24.2016C77.0879 23.9916 76.9613 23.7996 76.7975 23.6373C76.6342 23.4742 76.437 23.3442 76.2181 23.2555C75.9992 23.1667 75.7632 23.1209 75.5248 23.1211H66.4747C66.2362 23.1209 66.0003 23.1667 65.7814 23.2555C65.5625 23.3442 65.3653 23.4742 65.2019 23.6373C65.0381 23.7996 64.9115 23.9916 64.8299 24.2016C64.7483 24.4117 64.7135 24.6351 64.7275 24.8583L64.8605 27.0722C63.5171 27.453 62.2174 27.958 60.9803 28.5799L59.4099 26.9264C59.2511 26.7595 59.0576 26.6248 58.8414 26.5307C58.6252 26.4365 58.3907 26.3848 58.1524 26.3788C57.9143 26.3719 57.6772 26.411 57.4559 26.4936C57.2345 26.5762 57.0335 26.7006 56.8654 26.8591L50.466 32.8655C50.2977 33.0237 50.1654 33.2124 50.0772 33.4201C49.9889 33.6278 49.9466 33.8501 49.9527 34.0736C49.9669 34.5257 50.1787 34.953 50.5377 35.2535L52.3007 36.7299C51.6355 37.8905 51.0959 39.1107 50.6898 40.3723L48.3369 40.246C48.0986 40.232 47.8598 40.2644 47.6356 40.3413C47.4113 40.4183 47.2065 40.5379 47.034 40.6929C46.8608 40.8465 46.7228 41.0317 46.6286 41.2372C46.5343 41.4426 46.4857 41.664 46.4857 41.8877V50.3818C46.4857 50.6055 46.5343 50.8268 46.6286 51.0323C46.7228 51.2377 46.8608 51.423 47.034 51.5766C47.3842 51.8874 47.8531 52.0446 48.3363 52.0215ZM99.0164 106.953H109.523V90.5153H99.0164V106.953ZM65.7469 106.953H76.2531V90.5153H65.7469V106.953ZM32.4775 106.953H42.9837V90.5153H32.4775V106.953ZM111.274 87.2277H106.02V79.0089C106.02 78.573 105.836 78.1549 105.508 77.8466C105.179 77.5383 104.734 77.3652 104.269 77.3652H72.751V72.4339H69.249V77.3652H37.7306C37.2662 77.3652 36.8208 77.5383 36.4924 77.8466C36.164 78.1549 35.9796 78.573 35.9796 79.0089V87.2277H30.7265C30.2621 87.2277 29.8167 87.4009 29.4883 87.7092C29.16 88.0174 28.9755 88.4355 28.9755 88.8715V108.597C28.9755 109.033 29.16 109.451 29.4883 109.759C29.8167 110.067 30.2621 110.24 30.7265 110.24H44.7347C45.1991 110.24 45.6445 110.067 45.9728 109.759C46.3012 109.451 46.4857 109.033 46.4857 108.597V88.8715C46.4857 88.4355 46.3012 88.0174 45.9728 87.7092C45.6445 87.4009 45.1991 87.2277 44.7347 87.2277H39.4816V80.6527H69.249V87.2277H63.9959C63.5315 87.2277 63.0861 87.4009 62.7578 87.7092C62.4294 88.0174 62.2449 88.4355 62.2449 88.8715V108.597C62.2449 109.033 62.4294 109.451 62.7578 109.759C63.0861 110.067 63.5315 110.24 63.9959 110.24H78.0041C78.4685 110.24 78.9139 110.067 79.2423 109.759C79.5706 109.451 79.7551 109.033 79.7551 108.597V88.8715C79.7551 88.4355 79.5706 88.0174 79.2423 87.7092C78.9139 87.4009 78.4685 87.2277 78.0041 87.2277H72.751V80.6527H102.518V87.2277H97.2653C96.8009 87.2277 96.3556 87.4009 96.0272 87.7092C95.6988 88.0174 95.5143 88.4355 95.5143 88.8715V108.597C95.5143 109.033 95.6988 109.451 96.0272 109.759C96.3556 110.067 96.8009 110.24 97.2653 110.24H111.274C111.738 110.24 112.183 110.067 112.512 109.759C112.84 109.451 113.025 109.033 113.025 108.597V88.8715C113.025 88.4355 112.84 88.0174 112.512 87.7092C112.183 87.4009 111.738 87.2277 111.274 87.2277Z" fill="white"/>
<defs>
<linearGradient id="paint0_linear_47_8" x1="0.959106" y1="131.609" x2="132.198" y2="-8.19312" gradientUnits="userSpaceOnUse">
<stop stop-color="#454545"/>
<stop offset="1" stop-color="#454545"/>
</linearGradient>
</defs>
</svg>
